<?xml version="1.0" encoding="UTF-8"?>
<svg xmlns="http://www.w3.org/2000/svg" xmlns:xlink="http://www.w3.org/1999/xlink" width="1730pt" height="814pt" viewBox="0 0 1730 814" version="1.1">
<defs>
<g>
<symbol overflow="visible" id="glyph0-0">
<path style="stroke:none;" d="M 0.953125 2.8125 L 0.953125 -10.125 L 8.0625 -10.125 L 8.0625 2.8125 Z M 1.765625 2 L 7.25 2 L 7.25 -9.296875 L 1.765625 -9.296875 Z M 1.765625 2 "/>
</symbol>
<symbol overflow="visible" id="glyph0-1">
<path style="stroke:none;" d="M 1.8125 -1.1875 L 4.1875 -1.1875 L 4.1875 -8.78125 L 1.609375 -8.296875 L 1.609375 -9.515625 L 4.171875 -10 L 5.609375 -10 L 5.609375 -1.1875 L 7.984375 -1.1875 L 7.984375 0 L 1.8125 0 Z M 1.8125 -1.1875 "/>
</symbol>
<symbol overflow="visible" id="glyph0-2">
<path style="stroke:none;" d=""/>
</symbol>
<symbol overflow="visible" id="glyph0-3">
<path style="stroke:none;" d="M 5.015625 -9.15625 L 3.046875 -3.984375 L 6.984375 -3.984375 Z M 4.203125 -10 L 5.84375 -10 L 9.921875 0 L 8.40625 0 L 7.4375 -2.828125 L 2.609375 -2.828125 L 1.640625 0 L 0.109375 0 Z M 4.203125 -10 "/>
</symbol>
<symbol overflow="visible" id="glyph0-4">
<path style="stroke:none;" d="M 1.25 -3.28125 L 1.25 -8 L 2.5625 -8 L 2.5625 -3.1875 C 2.5625 -2.425781 2.707031 -1.851562 3 -1.46875 C 3.300781 -1.09375 3.75 -0.90625 4.34375 -0.90625 C 5.050781 -0.90625 5.609375 -1.128906 6.015625 -1.578125 C 6.429688 -2.035156 6.640625 -2.65625 6.640625 -3.4375 L 6.640625 -8 L 7.96875 -8 L 7.96875 0 L 6.640625 0 L 6.640625 -1.203125 C 6.328125 -0.796875 5.957031 -0.492188 5.53125 -0.296875 C 5.113281 -0.0976562 4.625 0 4.0625 0 C 3.132812 0 2.429688 -0.273438 1.953125 -0.828125 C 1.484375 -1.390625 1.25 -2.207031 1.25 -3.28125 Z M 1.25 -3.28125 "/>
</symbol>
<symbol overflow="visible" id="glyph0-5">
<path style="stroke:none;" d="M 2.6875 -10 L 2.6875 -8 L 5.40625 -8 L 5.40625 -7 L 2.6875 -7 L 2.6875 -2.625 C 2.6875 -1.96875 2.773438 -1.546875 2.953125 -1.359375 C 3.128906 -1.171875 3.492188 -1.078125 4.046875 -1.078125 L 5.40625 -1.078125 L 5.40625 0 L 4.046875 0 C 3.023438 0 2.320312 -0.1875 1.9375 -0.5625 C 1.550781 -0.945312 1.359375 -1.644531 1.359375 -2.65625 L 1.359375 -7 L 0.390625 -7 L 0.390625 -8 L 1.359375 -8 L 1.359375 -10 Z M 2.6875 -10 "/>
</symbol>
<symbol overflow="visible" id="glyph0-6">
<path style="stroke:none;" d="M 4.484375 -6.90625 C 3.785156 -6.90625 3.226562 -6.644531 2.8125 -6.125 C 2.40625 -5.601562 2.203125 -4.894531 2.203125 -4 C 2.203125 -3.101562 2.40625 -2.394531 2.8125 -1.875 C 3.21875 -1.351562 3.773438 -1.09375 4.484375 -1.09375 C 5.191406 -1.09375 5.75 -1.351562 6.15625 -1.875 C 6.570312 -2.394531 6.78125 -3.101562 6.78125 -4 C 6.78125 -4.894531 6.570312 -5.601562 6.15625 -6.125 C 5.75 -6.644531 5.191406 -6.90625 4.484375 -6.90625 Z M 4.484375 -8 C 5.640625 -8 6.539062 -7.644531 7.1875 -6.9375 C 7.84375 -6.226562 8.171875 -5.25 8.171875 -4 C 8.171875 -2.757812 7.84375 -1.78125 7.1875 -1.0625 C 6.539062 -0.351562 5.640625 0 4.484375 0 C 3.335938 0 2.4375 -0.351562 1.78125 -1.0625 C 1.132812 -1.78125 0.8125 -2.757812 0.8125 -4 C 0.8125 -5.25 1.132812 -6.226562 1.78125 -6.9375 C 2.4375 -7.644531 3.335938 -8 4.484375 -8 Z M 4.484375 -8 "/>
</symbol>
<symbol overflow="visible" id="glyph0-7">
<path style="stroke:none;" d="M 6.03125 -6.796875 C 5.882812 -6.878906 5.722656 -6.941406 5.546875 -6.984375 C 5.367188 -7.023438 5.175781 -7.046875 4.96875 -7.046875 C 4.226562 -7.046875 3.65625 -6.800781 3.25 -6.3125 C 2.851562 -5.832031 2.65625 -5.132812 2.65625 -4.21875 L 2.65625 0 L 1.328125 0 L 1.328125 -8 L 2.65625 -8 L 2.65625 -6.78125 C 2.9375 -7.195312 3.296875 -7.503906 3.734375 -7.703125 C 4.179688 -7.898438 4.722656 -8 5.359375 -8 C 5.453125 -8 5.550781 -8.003906 5.65625 -8.015625 C 5.769531 -8.035156 5.894531 -8.066406 6.03125 -8.109375 Z M 6.03125 -6.796875 "/>
</symbol>
<symbol overflow="visible" id="glyph0-8">
<path style="stroke:none;" d="M 1.375 -8 L 2.703125 -8 L 2.703125 0 L 1.375 0 Z M 1.375 -11 L 2.703125 -11 L 2.703125 -9.375 L 1.375 -9.375 Z M 1.375 -11 "/>
</symbol>
<symbol overflow="visible" id="glyph0-9">
<path style="stroke:none;" d="M 8.25 -4.5625 L 8.25 -4 L 2.1875 -4 C 2.238281 -3.050781 2.507812 -2.328125 3 -1.828125 C 3.488281 -1.335938 4.171875 -1.09375 5.046875 -1.09375 C 5.554688 -1.09375 6.046875 -1.15625 6.515625 -1.28125 C 6.992188 -1.414062 7.46875 -1.613281 7.9375 -1.875 L 7.9375 -0.609375 C 7.46875 -0.421875 6.984375 -0.269531 6.484375 -0.15625 C 5.984375 -0.0507812 5.476562 0 4.96875 0 C 3.6875 0 2.671875 -0.351562 1.921875 -1.0625 C 1.179688 -1.769531 0.8125 -2.726562 0.8125 -3.9375 C 0.8125 -5.1875 1.164062 -6.175781 1.875 -6.90625 C 2.582031 -7.632812 3.539062 -8 4.75 -8 C 5.820312 -8 6.671875 -7.691406 7.296875 -7.078125 C 7.929688 -6.460938 8.25 -5.625 8.25 -4.5625 Z M 6.921875 -5 C 6.910156 -5.582031 6.707031 -6.046875 6.3125 -6.390625 C 5.925781 -6.734375 5.40625 -6.90625 4.75 -6.90625 C 4.019531 -6.90625 3.429688 -6.738281 2.984375 -6.40625 C 2.546875 -6.082031 2.296875 -5.613281 2.234375 -5 Z M 5.65625 -11.5 L 7.078125 -11.5 L 4.75 -9 L 3.65625 -9 Z M 5.65625 -11.5 "/>
</symbol>
<symbol overflow="visible" id="glyph0-10">
<path style="stroke:none;" d="M 6.65625 -6.625 L 6.65625 -11 L 7.984375 -11 L 7.984375 0 L 6.65625 0 L 6.65625 -1.171875 C 6.382812 -0.773438 6.035156 -0.476562 5.609375 -0.28125 C 5.191406 -0.09375 4.6875 0 4.09375 0 C 3.125 0 2.332031 -0.363281 1.71875 -1.09375 C 1.113281 -1.832031 0.8125 -2.800781 0.8125 -4 C 0.8125 -5.195312 1.113281 -6.160156 1.71875 -6.890625 C 2.332031 -7.628906 3.125 -8 4.09375 -8 C 4.6875 -8 5.191406 -7.882812 5.609375 -7.65625 C 6.035156 -7.4375 6.382812 -7.09375 6.65625 -6.625 Z M 2.171875 -3.890625 C 2.171875 -2.953125 2.367188 -2.210938 2.765625 -1.671875 C 3.160156 -1.140625 3.707031 -0.875 4.40625 -0.875 C 5.101562 -0.875 5.648438 -1.140625 6.046875 -1.671875 C 6.453125 -2.210938 6.65625 -2.953125 6.65625 -3.890625 C 6.65625 -4.835938 6.453125 -5.578125 6.046875 -6.109375 C 5.648438 -6.648438 5.101562 -6.921875 4.40625 -6.921875 C 3.707031 -6.921875 3.160156 -6.648438 2.765625 -6.109375 C 2.367188 -5.578125 2.171875 -4.835938 2.171875 -3.890625 Z M 2.171875 -3.890625 "/>
</symbol>
<symbol overflow="visible" id="glyph0-11">
<path style="stroke:none;" d="M 8.25 -4.5625 L 8.25 -4 L 2.1875 -4 C 2.238281 -3.050781 2.507812 -2.328125 3 -1.828125 C 3.488281 -1.335938 4.171875 -1.09375 5.046875 -1.09375 C 5.554688 -1.09375 6.046875 -1.15625 6.515625 -1.28125 C 6.992188 -1.414062 7.46875 -1.613281 7.9375 -1.875 L 7.9375 -0.609375 C 7.46875 -0.421875 6.984375 -0.269531 6.484375 -0.15625 C 5.984375 -0.0507812 5.476562 0 4.96875 0 C 3.6875 0 2.671875 -0.351562 1.921875 -1.0625 C 1.179688 -1.769531 0.8125 -2.726562 0.8125 -3.9375 C 0.8125 -5.1875 1.164062 -6.175781 1.875 -6.90625 C 2.582031 -7.632812 3.539062 -8 4.75 -8 C 5.820312 -8 6.671875 -7.691406 7.296875 -7.078125 C 7.929688 -6.460938 8.25 -5.625 8.25 -4.5625 Z M 6.921875 -5 C 6.910156 -5.582031 6.707031 -6.046875 6.3125 -6.390625 C 5.925781 -6.734375 5.40625 -6.90625 4.75 -6.90625 C 4.019531 -6.90625 3.429688 -6.738281 2.984375 -6.40625 C 2.546875 -6.082031 2.296875 -5.613281 2.234375 -5 Z M 6.921875 -5 "/>
</symbol>
<symbol overflow="visible" id="glyph0-12">
<path style="stroke:none;" d="M 1.375 -11 L 2.703125 -11 L 2.703125 0 L 1.375 0 Z M 1.375 -11 "/>
</symbol>
<symbol overflow="visible" id="glyph0-13">
<path style="stroke:none;" d="M 2.625 -10 L 2.625 -6.140625 L 1.40625 -6.140625 L 1.40625 -10 Z M 2.625 -10 "/>
</symbol>
<symbol overflow="visible" id="glyph0-14">
<path style="stroke:none;" d="M 1.28125 -10 L 2.734375 -10 L 2.734375 -4.09375 C 2.734375 -3.039062 2.9375 -2.285156 3.34375 -1.828125 C 3.757812 -1.367188 4.4375 -1.140625 5.375 -1.140625 C 6.300781 -1.140625 6.972656 -1.367188 7.390625 -1.828125 C 7.804688 -2.285156 8.015625 -3.039062 8.015625 -4.09375 L 8.015625 -10 L 9.46875 -10 L 9.46875 -3.875 C 9.46875 -2.59375 9.117188 -1.625 8.421875 -0.96875 C 7.734375 -0.320312 6.71875 0 5.375 0 C 4.019531 0 3 -0.320312 2.3125 -0.96875 C 1.625 -1.625 1.28125 -2.59375 1.28125 -3.875 Z M 1.28125 -10 "/>
</symbol>
<symbol overflow="visible" id="glyph0-15">
<path style="stroke:none;" d="M 9.453125 -9.015625 L 9.453125 -7.65625 C 8.960938 -8.050781 8.441406 -8.347656 7.890625 -8.546875 C 7.335938 -8.742188 6.75 -8.84375 6.125 -8.84375 C 4.90625 -8.84375 3.96875 -8.515625 3.3125 -7.859375 C 2.664062 -7.203125 2.34375 -6.25 2.34375 -5 C 2.34375 -3.757812 2.664062 -2.804688 3.3125 -2.140625 C 3.96875 -1.484375 4.90625 -1.15625 6.125 -1.15625 C 6.75 -1.15625 7.335938 -1.253906 7.890625 -1.453125 C 8.441406 -1.648438 8.960938 -1.945312 9.453125 -2.34375 L 9.453125 -1 C 8.941406 -0.664062 8.398438 -0.414062 7.828125 -0.25 C 7.265625 -0.0820312 6.671875 0 6.046875 0 C 4.429688 0 3.15625 -0.441406 2.21875 -1.328125 C 1.289062 -2.222656 0.828125 -3.445312 0.828125 -5 C 0.828125 -6.550781 1.289062 -7.769531 2.21875 -8.65625 C 3.15625 -9.550781 4.429688 -10 6.046875 -10 C 6.679688 -10 7.28125 -9.914062 7.84375 -9.75 C 8.414062 -9.59375 8.953125 -9.347656 9.453125 -9.015625 Z M 9.453125 -9.015625 "/>
</symbol>
<symbol overflow="visible" id="glyph0-16">
<path style="stroke:none;" d="M 2.890625 -8.84375 L 2.890625 -1.15625 L 4.640625 -1.15625 C 6.109375 -1.15625 7.1875 -1.460938 7.875 -2.078125 C 8.5625 -2.703125 8.90625 -3.679688 8.90625 -5.015625 C 8.90625 -6.335938 8.5625 -7.304688 7.875 -7.921875 C 7.1875 -8.535156 6.109375 -8.84375 4.640625 -8.84375 Z M 1.4375 -10 L 4.40625 -10 C 6.476562 -10 8 -9.59375 8.96875 -8.78125 C 9.945312 -7.976562 10.4375 -6.722656 10.4375 -5.015625 C 10.4375 -3.296875 9.945312 -2.03125 8.96875 -1.21875 C 8 -0.40625 6.476562 0 4.40625 0 L 1.4375 0 Z M 1.4375 -10 "/>
</symbol>
<symbol overflow="visible" id="glyph0-17">
<path style="stroke:none;" d="M 1.4375 -10 L 2.890625 -10 L 2.890625 0 L 1.4375 0 Z M 1.4375 -10 "/>
</symbol>
<symbol overflow="visible" id="glyph0-18">
<path style="stroke:none;" d="M 7.859375 -9.46875 L 7.859375 -8.171875 C 7.304688 -8.398438 6.785156 -8.570312 6.296875 -8.6875 C 5.804688 -8.800781 5.335938 -8.859375 4.890625 -8.859375 C 4.097656 -8.859375 3.488281 -8.722656 3.0625 -8.453125 C 2.632812 -8.179688 2.421875 -7.789062 2.421875 -7.28125 C 2.421875 -6.863281 2.5625 -6.546875 2.84375 -6.328125 C 3.132812 -6.109375 3.675781 -5.9375 4.46875 -5.8125 L 5.34375 -5.640625 C 6.414062 -5.460938 7.207031 -5.140625 7.71875 -4.671875 C 8.238281 -4.210938 8.5 -3.597656 8.5 -2.828125 C 8.5 -1.898438 8.148438 -1.195312 7.453125 -0.71875 C 6.753906 -0.238281 5.738281 0 4.40625 0 C 3.894531 0 3.351562 -0.0507812 2.78125 -0.15625 C 2.207031 -0.269531 1.617188 -0.4375 1.015625 -0.65625 L 1.015625 -2.015625 C 1.597656 -1.722656 2.171875 -1.503906 2.734375 -1.359375 C 3.296875 -1.210938 3.851562 -1.140625 4.40625 -1.140625 C 5.226562 -1.140625 5.863281 -1.285156 6.3125 -1.578125 C 6.757812 -1.867188 6.984375 -2.28125 6.984375 -2.8125 C 6.984375 -3.28125 6.820312 -3.648438 6.5 -3.921875 C 6.175781 -4.191406 5.648438 -4.390625 4.921875 -4.515625 L 4.03125 -4.671875 C 2.957031 -4.859375 2.175781 -5.15625 1.6875 -5.5625 C 1.207031 -5.976562 0.96875 -6.550781 0.96875 -7.28125 C 0.96875 -8.125 1.300781 -8.785156 1.96875 -9.265625 C 2.632812 -9.753906 3.550781 -10 4.71875 -10 C 5.21875 -10 5.726562 -9.953125 6.25 -9.859375 C 6.769531 -9.773438 7.304688 -9.644531 7.859375 -9.46875 Z M 7.859375 -9.46875 "/>
</symbol>
<symbol overflow="visible" id="glyph0-19">
<path style="stroke:none;" d="M 6.515625 -4.6875 C 6.828125 -4.59375 7.128906 -4.382812 7.421875 -4.0625 C 7.710938 -3.738281 8.003906 -3.296875 8.296875 -2.734375 L 9.765625 0 L 8.21875 0 L 6.84375 -2.921875 C 6.488281 -3.691406 6.144531 -4.203125 5.8125 -4.453125 C 5.488281 -4.703125 5.039062 -4.828125 4.46875 -4.828125 L 2.890625 -4.828125 L 2.890625 0 L 1.4375 0 L 1.4375 -10 L 4.703125 -10 C 5.929688 -10 6.84375 -9.757812 7.4375 -9.28125 C 8.039062 -8.8125 8.34375 -8.085938 8.34375 -7.109375 C 8.34375 -6.484375 8.1875 -5.960938 7.875 -5.546875 C 7.5625 -5.128906 7.109375 -4.84375 6.515625 -4.6875 Z M 2.890625 -8.84375 L 2.890625 -5.984375 L 4.703125 -5.984375 C 5.398438 -5.984375 5.925781 -6.101562 6.28125 -6.34375 C 6.632812 -6.59375 6.8125 -6.945312 6.8125 -7.40625 C 6.8125 -7.882812 6.632812 -8.242188 6.28125 -8.484375 C 5.925781 -8.722656 5.398438 -8.84375 4.703125 -8.84375 Z M 2.890625 -8.84375 "/>
</symbol>
<symbol overflow="visible" id="glyph0-20">
<path style="stroke:none;" d="M 5.78125 -8.859375 C 4.726562 -8.859375 3.890625 -8.515625 3.265625 -7.828125 C 2.648438 -7.140625 2.34375 -6.195312 2.34375 -5 C 2.34375 -3.8125 2.648438 -2.867188 3.265625 -2.171875 C 3.890625 -1.484375 4.726562 -1.140625 5.78125 -1.140625 C 6.832031 -1.140625 7.664062 -1.484375 8.28125 -2.171875 C 8.894531 -2.867188 9.203125 -3.8125 9.203125 -5 C 9.203125 -6.195312 8.894531 -7.140625 8.28125 -7.828125 C 7.664062 -8.515625 6.832031 -8.859375 5.78125 -8.859375 Z M 5.78125 -10 C 7.28125 -10 8.476562 -9.546875 9.375 -8.640625 C 10.269531 -7.734375 10.71875 -6.519531 10.71875 -5 C 10.71875 -3.476562 10.269531 -2.265625 9.375 -1.359375 C 8.476562 -0.453125 7.28125 0 5.78125 0 C 4.28125 0 3.078125 -0.445312 2.171875 -1.34375 C 1.273438 -2.25 0.828125 -3.46875 0.828125 -5 C 0.828125 -6.519531 1.273438 -7.734375 2.171875 -8.640625 C 3.078125 -9.546875 4.28125 -10 5.78125 -10 Z M 5.78125 -10 "/>
</symbol>
<symbol overflow="visible" id="glyph0-21">
<path style="stroke:none;" d="M 1.4375 -10 L 3.390625 -10 L 8.125 -1.640625 L 8.125 -10 L 9.53125 -10 L 9.53125 0 L 7.59375 0 L 2.84375 -8.359375 L 2.84375 0 L 1.4375 0 Z M 1.4375 -10 "/>
</symbol>
<symbol overflow="visible" id="glyph0-22">
<path style="stroke:none;" d="M 1.4375 -10 L 8.203125 -10 L 8.203125 -8.8125 L 2.890625 -8.8125 L 2.890625 -6 L 7.984375 -6 L 7.984375 -4.8125 L 2.890625 -4.8125 L 2.890625 -1.1875 L 8.328125 -1.1875 L 8.328125 0 L 1.4375 0 Z M 1.4375 -10 "/>
</symbol>
<symbol overflow="visible" id="glyph0-23">
<path style="stroke:none;" d="M 1.4375 -10 L 2.890625 -10 L 2.890625 -1.1875 L 8.09375 -1.1875 L 8.09375 0 L 1.4375 0 Z M 1.4375 -10 "/>
</symbol>
<symbol overflow="visible" id="glyph0-24">
<path style="stroke:none;" d="M 8.734375 -1.734375 L 8.734375 -4.828125 L 6.375 -4.828125 L 6.375 -5.984375 L 10.171875 -5.984375 L 10.171875 -1.171875 C 9.609375 -0.785156 8.988281 -0.492188 8.3125 -0.296875 C 7.644531 -0.0976562 6.925781 0 6.15625 0 C 4.488281 0 3.179688 -0.4375 2.234375 -1.3125 C 1.296875 -2.195312 0.828125 -3.425781 0.828125 -5 C 0.828125 -6.570312 1.296875 -7.796875 2.234375 -8.671875 C 3.179688 -9.554688 4.488281 -10 6.15625 -10 C 6.851562 -10 7.515625 -9.914062 8.140625 -9.75 C 8.773438 -9.582031 9.359375 -9.335938 9.890625 -9.015625 L 9.890625 -7.890625 C 9.347656 -8.203125 8.773438 -8.4375 8.171875 -8.59375 C 7.578125 -8.757812 6.945312 -8.84375 6.28125 -8.84375 C 4.96875 -8.84375 3.984375 -8.519531 3.328125 -7.875 C 2.671875 -7.238281 2.34375 -6.28125 2.34375 -5 C 2.34375 -3.726562 2.671875 -2.769531 3.328125 -2.125 C 3.984375 -1.476562 4.96875 -1.15625 6.28125 -1.15625 C 6.789062 -1.15625 7.242188 -1.203125 7.640625 -1.296875 C 8.046875 -1.398438 8.410156 -1.546875 8.734375 -1.734375 Z M 8.734375 -1.734375 "/>
</symbol>
<symbol overflow="visible" id="glyph0-25">
<path style="stroke:none;" d="M -0.046875 -10 L 9 -10 L 9 -8.8125 L 5.203125 -8.8125 L 5.203125 0 L 3.75 0 L 3.75 -8.8125 L -0.046875 -8.8125 Z M -0.046875 -10 "/>
</symbol>
<symbol overflow="visible" id="glyph0-26">
<path style="stroke:none;" d="M 2.65625 -1.375 L 2.65625 3 L 1.328125 3 L 1.328125 -8 L 2.65625 -8 L 2.65625 -6.8125 C 2.9375 -7.21875 3.285156 -7.515625 3.703125 -7.703125 C 4.128906 -7.898438 4.632812 -8 5.21875 -8 C 6.195312 -8 6.988281 -7.628906 7.59375 -6.890625 C 8.207031 -6.160156 8.515625 -5.195312 8.515625 -4 C 8.515625 -2.800781 8.207031 -1.832031 7.59375 -1.09375 C 6.988281 -0.363281 6.195312 0 5.21875 0 C 4.632812 0 4.128906 -0.109375 3.703125 -0.328125 C 3.285156 -0.554688 2.9375 -0.90625 2.65625 -1.375 Z M 7.140625 -4.09375 C 7.140625 -5.03125 6.941406 -5.765625 6.546875 -6.296875 C 6.148438 -6.835938 5.601562 -7.109375 4.90625 -7.109375 C 4.207031 -7.109375 3.65625 -6.835938 3.25 -6.296875 C 2.851562 -5.765625 2.65625 -5.03125 2.65625 -4.09375 C 2.65625 -3.15625 2.851562 -2.414062 3.25 -1.875 C 3.65625 -1.34375 4.207031 -1.078125 4.90625 -1.078125 C 5.601562 -1.078125 6.148438 -1.34375 6.546875 -1.875 C 6.941406 -2.414062 7.140625 -3.15625 7.140625 -4.09375 Z M 7.140625 -4.09375 "/>
</symbol>
<symbol overflow="visible" id="glyph0-27">
<path style="stroke:none;" d="M 6.5 -7.578125 L 6.5 -6.390625 C 6.125 -6.566406 5.734375 -6.695312 5.328125 -6.78125 C 4.929688 -6.875 4.519531 -6.921875 4.09375 -6.921875 C 3.4375 -6.921875 2.941406 -6.828125 2.609375 -6.640625 C 2.285156 -6.453125 2.125 -6.164062 2.125 -5.78125 C 2.125 -5.5 2.238281 -5.273438 2.46875 -5.109375 C 2.707031 -4.941406 3.179688 -4.78125 3.890625 -4.625 L 4.34375 -4.53125 C 5.28125 -4.34375 5.941406 -4.078125 6.328125 -3.734375 C 6.722656 -3.390625 6.921875 -2.910156 6.921875 -2.296875 C 6.921875 -1.585938 6.625 -1.023438 6.03125 -0.609375 C 5.445312 -0.203125 4.640625 0 3.609375 0 C 3.179688 0 2.734375 -0.0390625 2.265625 -0.125 C 1.796875 -0.207031 1.304688 -0.328125 0.796875 -0.484375 L 0.796875 -1.796875 C 1.285156 -1.554688 1.765625 -1.375 2.234375 -1.25 C 2.703125 -1.132812 3.171875 -1.078125 3.640625 -1.078125 C 4.265625 -1.078125 4.742188 -1.175781 5.078125 -1.375 C 5.410156 -1.582031 5.578125 -1.867188 5.578125 -2.234375 C 5.578125 -2.566406 5.453125 -2.820312 5.203125 -3 C 4.960938 -3.1875 4.4375 -3.359375 3.625 -3.515625 L 3.171875 -3.625 C 2.347656 -3.789062 1.753906 -4.039062 1.390625 -4.375 C 1.035156 -4.71875 0.859375 -5.179688 0.859375 -5.765625 C 0.859375 -6.472656 1.125 -7.019531 1.65625 -7.40625 C 2.1875 -7.800781 2.945312 -8 3.9375 -8 C 4.414062 -8 4.867188 -7.960938 5.296875 -7.890625 C 5.734375 -7.828125 6.132812 -7.722656 6.5 -7.578125 Z M 6.5 -7.578125 "/>
</symbol>
<symbol overflow="visible" id="glyph0-28">
<path style="stroke:none;" d="M 8.046875 -4.71875 L 8.046875 0 L 6.734375 0 L 6.734375 -4.796875 C 6.734375 -5.554688 6.582031 -6.125 6.28125 -6.5 C 5.988281 -6.875 5.546875 -7.0625 4.953125 -7.0625 C 4.242188 -7.0625 3.679688 -6.835938 3.265625 -6.390625 C 2.859375 -5.941406 2.65625 -5.328125 2.65625 -4.546875 L 2.65625 0 L 1.328125 0 L 1.328125 -8 L 2.65625 -8 L 2.65625 -6.765625 C 2.96875 -7.171875 3.335938 -7.476562 3.765625 -7.6875 C 4.191406 -7.894531 4.6875 -8 5.25 -8 C 6.175781 -8 6.875 -7.71875 7.34375 -7.15625 C 7.8125 -6.601562 8.046875 -5.789062 8.046875 -4.71875 Z M 8.046875 -4.71875 "/>
</symbol>
<symbol overflow="visible" id="glyph0-29">
<path style="stroke:none;" d="M 6.65625 -4 C 6.65625 -4.925781 6.457031 -5.644531 6.0625 -6.15625 C 5.675781 -6.664062 5.125 -6.921875 4.40625 -6.921875 C 3.707031 -6.921875 3.160156 -6.664062 2.765625 -6.15625 C 2.367188 -5.644531 2.171875 -4.925781 2.171875 -4 C 2.171875 -3.070312 2.367188 -2.351562 2.765625 -1.84375 C 3.160156 -1.332031 3.707031 -1.078125 4.40625 -1.078125 C 5.125 -1.078125 5.675781 -1.332031 6.0625 -1.84375 C 6.457031 -2.351562 6.65625 -3.070312 6.65625 -4 Z M 7.984375 -1.015625 C 7.984375 0.335938 7.675781 1.34375 7.0625 2 C 6.457031 2.664062 5.53125 3 4.28125 3 C 3.820312 3 3.382812 2.960938 2.96875 2.890625 C 2.5625 2.828125 2.164062 2.726562 1.78125 2.59375 L 1.78125 1.328125 C 2.164062 1.546875 2.546875 1.703125 2.921875 1.796875 C 3.296875 1.890625 3.679688 1.9375 4.078125 1.9375 C 4.941406 1.9375 5.585938 1.710938 6.015625 1.265625 C 6.441406 0.828125 6.65625 0.160156 6.65625 -0.734375 L 6.65625 -1.375 C 6.382812 -0.914062 6.035156 -0.570312 5.609375 -0.34375 C 5.191406 -0.113281 4.6875 0 4.09375 0 C 3.101562 0 2.304688 -0.363281 1.703125 -1.09375 C 1.109375 -1.820312 0.8125 -2.789062 0.8125 -4 C 0.8125 -5.207031 1.109375 -6.175781 1.703125 -6.90625 C 2.304688 -7.632812 3.101562 -8 4.09375 -8 C 4.6875 -8 5.191406 -7.882812 5.609375 -7.65625 C 6.035156 -7.425781 6.382812 -7.082031 6.65625 -6.625 L 6.65625 -8 L 7.984375 -8 Z M 7.984375 -1.015625 "/>
</symbol>
<symbol overflow="visible" id="glyph0-30">
<path style="stroke:none;" d="M 5.03125 -3.90625 C 3.96875 -3.90625 3.226562 -3.785156 2.8125 -3.546875 C 2.40625 -3.316406 2.203125 -2.921875 2.203125 -2.359375 C 2.203125 -1.898438 2.351562 -1.535156 2.65625 -1.265625 C 2.96875 -1.003906 3.390625 -0.875 3.921875 -0.875 C 4.648438 -0.875 5.234375 -1.125 5.671875 -1.625 C 6.117188 -2.132812 6.34375 -2.800781 6.34375 -3.625 L 6.34375 -3.90625 Z M 7.65625 -4.453125 L 7.65625 0 L 6.34375 0 L 6.34375 -1.1875 C 6.039062 -0.78125 5.664062 -0.476562 5.21875 -0.28125 C 4.769531 -0.09375 4.21875 0 3.5625 0 C 2.738281 0 2.082031 -0.210938 1.59375 -0.640625 C 1.113281 -1.066406 0.875 -1.640625 0.875 -2.359375 C 0.875 -3.203125 1.175781 -3.835938 1.78125 -4.265625 C 2.382812 -4.691406 3.285156 -4.90625 4.484375 -4.90625 L 6.34375 -4.90625 L 6.34375 -5.03125 C 6.34375 -5.625 6.140625 -6.082031 5.734375 -6.40625 C 5.335938 -6.738281 4.78125 -6.90625 4.0625 -6.90625 C 3.601562 -6.90625 3.15625 -6.851562 2.71875 -6.75 C 2.289062 -6.644531 1.875 -6.484375 1.46875 -6.265625 L 1.46875 -7.453125 C 1.945312 -7.628906 2.410156 -7.765625 2.859375 -7.859375 C 3.316406 -7.953125 3.765625 -8 4.203125 -8 C 5.359375 -8 6.222656 -7.703125 6.796875 -7.109375 C 7.367188 -6.523438 7.65625 -5.640625 7.65625 -4.453125 Z M 7.65625 -4.453125 "/>
</symbol>
<symbol overflow="visible" id="glyph0-31">
<path style="stroke:none;" d="M 7.15625 -7.515625 L 7.15625 -6.328125 C 6.78125 -6.515625 6.40625 -6.65625 6.03125 -6.75 C 5.65625 -6.851562 5.28125 -6.90625 4.90625 -6.90625 C 4.050781 -6.90625 3.382812 -6.648438 2.90625 -6.140625 C 2.4375 -5.628906 2.203125 -4.914062 2.203125 -4 C 2.203125 -3.082031 2.4375 -2.367188 2.90625 -1.859375 C 3.382812 -1.347656 4.050781 -1.09375 4.90625 -1.09375 C 5.28125 -1.09375 5.65625 -1.140625 6.03125 -1.234375 C 6.40625 -1.328125 6.78125 -1.472656 7.15625 -1.671875 L 7.15625 -0.5 C 6.789062 -0.332031 6.410156 -0.207031 6.015625 -0.125 C 5.617188 -0.0390625 5.195312 0 4.75 0 C 3.539062 0 2.582031 -0.359375 1.875 -1.078125 C 1.164062 -1.796875 0.8125 -2.769531 0.8125 -4 C 0.8125 -5.238281 1.171875 -6.210938 1.890625 -6.921875 C 2.609375 -7.640625 3.59375 -8 4.84375 -8 C 5.25 -8 5.644531 -7.957031 6.03125 -7.875 C 6.414062 -7.789062 6.789062 -7.671875 7.15625 -7.515625 Z M 7.15625 -7.515625 "/>
</symbol>
<symbol overflow="visible" id="glyph0-32">
<path style="stroke:none;" d="M 8.046875 -4.71875 L 8.046875 0 L 6.734375 0 L 6.734375 -4.671875 C 6.734375 -5.410156 6.582031 -5.960938 6.28125 -6.328125 C 5.988281 -6.691406 5.546875 -6.875 4.953125 -6.875 C 4.242188 -6.875 3.679688 -6.65625 3.265625 -6.21875 C 2.859375 -5.78125 2.65625 -5.179688 2.65625 -4.421875 L 2.65625 0 L 1.328125 0 L 1.328125 -11 L 2.65625 -11 L 2.65625 -6.59375 C 2.96875 -7.0625 3.335938 -7.410156 3.765625 -7.640625 C 4.191406 -7.878906 4.6875 -8 5.25 -8 C 6.175781 -8 6.875 -7.71875 7.34375 -7.15625 C 7.8125 -6.601562 8.046875 -5.789062 8.046875 -4.71875 Z M 8.046875 -4.71875 "/>
</symbol>
<symbol overflow="visible" id="glyph0-33">
<path style="stroke:none;" d="M 2.890625 -8.84375 L 2.890625 -4.984375 L 4.703125 -4.984375 C 5.378906 -4.984375 5.898438 -5.148438 6.265625 -5.484375 C 6.628906 -5.816406 6.8125 -6.296875 6.8125 -6.921875 C 6.8125 -7.535156 6.628906 -8.007812 6.265625 -8.34375 C 5.898438 -8.675781 5.378906 -8.84375 4.703125 -8.84375 Z M 1.4375 -10 L 4.703125 -10 C 5.898438 -10 6.804688 -9.738281 7.421875 -9.21875 C 8.035156 -8.695312 8.34375 -7.925781 8.34375 -6.90625 C 8.34375 -5.894531 8.035156 -5.128906 7.421875 -4.609375 C 6.804688 -4.085938 5.898438 -3.828125 4.703125 -3.828125 L 2.890625 -3.828125 L 2.890625 0 L 1.4375 0 Z M 1.4375 -10 "/>
</symbol>
<symbol overflow="visible" id="glyph0-34">
<path style="stroke:none;" d="M 2.171875 -4 C 2.171875 -3.09375 2.367188 -2.378906 2.765625 -1.859375 C 3.160156 -1.335938 3.707031 -1.078125 4.40625 -1.078125 C 5.101562 -1.078125 5.648438 -1.335938 6.046875 -1.859375 C 6.453125 -2.378906 6.65625 -3.09375 6.65625 -4 C 6.65625 -4.90625 6.453125 -5.617188 6.046875 -6.140625 C 5.648438 -6.660156 5.101562 -6.921875 4.40625 -6.921875 C 3.707031 -6.921875 3.160156 -6.660156 2.765625 -6.140625 C 2.367188 -5.617188 2.171875 -4.90625 2.171875 -4 Z M 6.65625 -1.375 C 6.382812 -0.90625 6.035156 -0.554688 5.609375 -0.328125 C 5.191406 -0.109375 4.6875 0 4.09375 0 C 3.125 0 2.332031 -0.363281 1.71875 -1.09375 C 1.113281 -1.832031 0.8125 -2.800781 0.8125 -4 C 0.8125 -5.195312 1.113281 -6.160156 1.71875 -6.890625 C 2.332031 -7.628906 3.125 -8 4.09375 -8 C 4.6875 -8 5.191406 -7.882812 5.609375 -7.65625 C 6.035156 -7.4375 6.382812 -7.09375 6.65625 -6.625 L 6.65625 -8 L 7.984375 -8 L 7.984375 3 L 6.65625 3 Z M 6.65625 -1.375 "/>
</symbol>
<symbol overflow="visible" id="glyph0-35">
<path style="stroke:none;" d="M 1.4375 -10 L 7.59375 -10 L 7.59375 -8.8125 L 2.890625 -8.8125 L 2.890625 -6 L 7.125 -6 L 7.125 -4.8125 L 2.890625 -4.8125 L 2.890625 0 L 1.4375 0 Z M 1.4375 -10 "/>
</symbol>
<symbol overflow="visible" id="glyph0-36">
<path style="stroke:none;" d="M 5.78125 -8.859375 C 4.726562 -8.859375 3.890625 -8.507812 3.265625 -7.8125 C 2.648438 -7.125 2.34375 -6.179688 2.34375 -4.984375 C 2.34375 -3.804688 2.648438 -2.867188 3.265625 -2.171875 C 3.890625 -1.472656 4.726562 -1.125 5.78125 -1.125 C 6.832031 -1.125 7.664062 -1.472656 8.28125 -2.171875 C 8.894531 -2.867188 9.203125 -3.804688 9.203125 -4.984375 C 9.203125 -6.179688 8.894531 -7.125 8.28125 -7.8125 C 7.664062 -8.507812 6.832031 -8.859375 5.78125 -8.859375 Z M 7.8125 -0.375 L 9.71875 1.5 L 7.96875 1.5 L 6.390625 0 C 6.222656 0 6.097656 0 6.015625 0 C 5.929688 0 5.851562 0 5.78125 0 C 4.28125 0 3.078125 -0.453125 2.171875 -1.359375 C 1.273438 -2.265625 0.828125 -3.476562 0.828125 -5 C 0.828125 -6.519531 1.273438 -7.734375 2.171875 -8.640625 C 3.078125 -9.546875 4.28125 -10 5.78125 -10 C 7.28125 -10 8.476562 -9.546875 9.375 -8.640625 C 10.269531 -7.734375 10.71875 -6.519531 10.71875 -5 C 10.71875 -3.882812 10.46875 -2.925781 9.96875 -2.125 C 9.476562 -1.332031 8.757812 -0.75 7.8125 -0.375 Z M 7.8125 -0.375 "/>
</symbol>
<symbol overflow="visible" id="glyph0-37">
<path style="stroke:none;" d="M 1.4375 -10 L 3.59375 -10 L 6.328125 -3.1875 L 9.0625 -10 L 11.21875 -10 L 11.21875 0 L 9.8125 0 L 9.8125 -8.78125 L 7.0625 -1.921875 L 5.609375 -1.921875 L 2.84375 -8.78125 L 2.84375 0 L 1.4375 0 Z M 1.4375 -10 "/>
</symbol>
<symbol overflow="visible" id="glyph0-38">
<path style="stroke:none;" d="M 2.890625 -4.84375 L 2.890625 -1.15625 L 5.203125 -1.15625 C 5.984375 -1.15625 6.5625 -1.304688 6.9375 -1.609375 C 7.3125 -1.910156 7.5 -2.375 7.5 -3 C 7.5 -3.632812 7.3125 -4.097656 6.9375 -4.390625 C 6.5625 -4.691406 5.984375 -4.84375 5.203125 -4.84375 Z M 2.890625 -8.84375 L 2.890625 -5.96875 L 5.03125 -5.96875 C 5.738281 -5.96875 6.265625 -6.085938 6.609375 -6.328125 C 6.953125 -6.566406 7.125 -6.925781 7.125 -7.40625 C 7.125 -7.882812 6.953125 -8.242188 6.609375 -8.484375 C 6.265625 -8.722656 5.738281 -8.84375 5.03125 -8.84375 Z M 1.4375 -10 L 5.140625 -10 C 6.242188 -10 7.09375 -9.789062 7.6875 -9.375 C 8.28125 -8.957031 8.578125 -8.359375 8.578125 -7.578125 C 8.578125 -6.972656 8.425781 -6.492188 8.125 -6.140625 C 7.820312 -5.785156 7.375 -5.5625 6.78125 -5.46875 C 7.488281 -5.320312 8.039062 -5.019531 8.4375 -4.5625 C 8.832031 -4.101562 9.03125 -3.53125 9.03125 -2.84375 C 9.03125 -1.9375 8.703125 -1.234375 8.046875 -0.734375 C 7.398438 -0.242188 6.476562 0 5.28125 0 L 1.4375 0 Z M 1.4375 -10 "/>
</symbol>
<symbol overflow="visible" id="glyph0-39">
<path style="stroke:none;" d="M 4.203125 0 L 0.109375 -10 L 1.625 -10 L 5.015625 -1.578125 L 8.40625 -10 L 9.921875 -10 L 5.84375 0 Z M 4.203125 0 "/>
</symbol>
<symbol overflow="visible" id="glyph0-40">
<path style="stroke:none;" d="M 5.4375 -11 L 5.4375 -9.9375 L 4.1875 -9.9375 C 3.707031 -9.9375 3.375 -9.84375 3.1875 -9.65625 C 3.007812 -9.476562 2.921875 -9.148438 2.921875 -8.671875 L 2.921875 -8 L 5.09375 -8 L 5.09375 -7 L 2.921875 -7 L 2.921875 0 L 1.59375 0 L 1.59375 -7 L 0.34375 -7 L 0.34375 -8 L 1.59375 -8 L 1.59375 -8.546875 C 1.59375 -9.398438 1.800781 -10.019531 2.21875 -10.40625 C 2.632812 -10.800781 3.296875 -11 4.203125 -11 Z M 5.4375 -11 "/>
</symbol>
</g>
</defs>
<g id="surface155468">
<path style="fill:none;stroke-width:4;stroke-linecap:round;stroke-linejoin:miter;stroke:rgb(30.588235%,60.392157%,2.352941%);stroke-opacity:1;stroke-miterlimit:10;" d="M 803.167969 516.90625 L 803.167969 391.90625 " transform="matrix(1,0,0,1,67.332031,-27.90625)"/>
<path style="fill-rule:nonzero;fill:rgb(30.588235%,60.392157%,2.352941%);fill-opacity:1;stroke-width:2;stroke-linecap:round;stroke-linejoin:miter;stroke:rgb(100%,100%,100%);stroke-opacity:1;stroke-miterlimit:10;" d="M 803.167969 388.90625 L 795.710938 399.554688 L 810.625 399.554688 Z M 803.167969 388.90625 " transform="matrix(1,0,0,1,67.332031,-27.90625)"/>
<path style="fill:none;stroke-width:4;stroke-linecap:round;stroke-linejoin:miter;stroke:rgb(30.588235%,60.392157%,2.352941%);stroke-opacity:1;stroke-miterlimit:10;" d="M 803.167969 355.90625 L 234.675781 245.90625 " transform="matrix(1,0,0,1,67.332031,-27.90625)"/>
<path style="fill-rule:nonzero;fill:rgb(30.588235%,60.392157%,2.352941%);fill-opacity:1;stroke-width:2;stroke-linecap:round;stroke-linejoin:miter;stroke:rgb(100%,100%,100%);stroke-opacity:1;stroke-miterlimit:10;" d="M 219.171875 242.90625 L 228.210938 252.25 L 231.042969 237.609375 Z M 219.171875 242.90625 " transform="matrix(1,0,0,1,67.332031,-27.90625)"/>
<path style="fill:none;stroke-width:4;stroke-linecap:round;stroke-linejoin:miter;stroke:rgb(30.588235%,60.392157%,2.352941%);stroke-opacity:1;stroke-miterlimit:10;" d="M 203.667969 209.90625 L 46.253906 99.90625 " transform="matrix(1,0,0,1,67.332031,-27.90625)"/>
<path style="fill-rule:nonzero;fill:rgb(30.588235%,60.392157%,2.352941%);fill-opacity:1;stroke-width:2;stroke-linecap:round;stroke-linejoin:miter;stroke:rgb(100%,100%,100%);stroke-opacity:1;stroke-miterlimit:10;" d="M 41.960938 96.90625 L 46.417969 109.117188 L 54.960938 96.894531 Z M 41.960938 96.90625 " transform="matrix(1,0,0,1,67.332031,-27.90625)"/>
<path style="fill-rule:nonzero;fill:rgb(100%,100%,100%);fill-opacity:1;stroke-width:4;stroke-linecap:round;stroke-linejoin:miter;stroke:rgb(30.588235%,60.392157%,2.352941%);stroke-opacity:1;stroke-miterlimit:10;" d="M -38.832031 63.90625 L 114.167969 63.90625 C 114.167969 63.90625 124.167969 78.90625 114.167969 93.90625 L -38.832031 93.90625 C -38.832031 93.90625 -48.832031 78.90625 -38.832031 63.90625 " transform="matrix(1,0,0,1,67.332031,-27.90625)"/>
<g style="fill:rgb(0%,0%,0%);fill-opacity:1;">
  <use xlink:href="#glyph0-1" x="29.5" y="56"/>
  <use xlink:href="#glyph0-2" x="38.5" y="56"/>
  <use xlink:href="#glyph0-3" x="43.5" y="56"/>
  <use xlink:href="#glyph0-4" x="53.5" y="56"/>
  <use xlink:href="#glyph0-5" x="62.5" y="56"/>
  <use xlink:href="#glyph0-6" x="68.5" y="56"/>
  <use xlink:href="#glyph0-7" x="77.5" y="56"/>
  <use xlink:href="#glyph0-8" x="83.5" y="56"/>
  <use xlink:href="#glyph0-5" x="87.5" y="56"/>
  <use xlink:href="#glyph0-9" x="93.5" y="56"/>
  <use xlink:href="#glyph0-2" x="102.5" y="56"/>
  <use xlink:href="#glyph0-10" x="107.5" y="56"/>
  <use xlink:href="#glyph0-11" x="116.5" y="56"/>
  <use xlink:href="#glyph0-2" x="125.5" y="56"/>
  <use xlink:href="#glyph0-12" x="130.5" y="56"/>
  <use xlink:href="#glyph0-13" x="134.5" y="56"/>
  <use xlink:href="#glyph0-14" x="138.5" y="56"/>
  <use xlink:href="#glyph0-15" x="149.5" y="56"/>
  <use xlink:href="#glyph0-3" x="159.5" y="56"/>
  <use xlink:href="#glyph0-16" x="169.5" y="56"/>
</g>
<path style="fill:none;stroke-width:4;stroke-linecap:round;stroke-linejoin:miter;stroke:rgb(30.588235%,60.392157%,2.352941%);stroke-opacity:1;stroke-miterlimit:10;" d="M 203.667969 209.90625 L 211.726563 99.90625 " transform="matrix(1,0,0,1,67.332031,-27.90625)"/>
<path style="fill-rule:nonzero;fill:rgb(30.588235%,60.392157%,2.352941%);fill-opacity:1;stroke-width:2;stroke-linecap:round;stroke-linejoin:miter;stroke:rgb(100%,100%,100%);stroke-opacity:1;stroke-miterlimit:10;" d="M 211.949219 96.90625 L 203.734375 106.980469 L 218.605469 108.070312 Z M 211.949219 96.90625 " transform="matrix(1,0,0,1,67.332031,-27.90625)"/>
<path style="fill-rule:nonzero;fill:rgb(100%,100%,100%);fill-opacity:1;stroke-width:4;stroke-linecap:round;stroke-linejoin:miter;stroke:rgb(30.588235%,60.392157%,2.352941%);stroke-opacity:1;stroke-miterlimit:10;" d="M 140.167969 63.90625 L 284.167969 63.90625 C 284.167969 63.90625 294.167969 78.90625 284.167969 93.90625 L 140.167969 93.90625 C 140.167969 93.90625 130.167969 78.90625 140.167969 63.90625 " transform="matrix(1,0,0,1,67.332031,-27.90625)"/>
<g style="fill:rgb(0%,0%,0%);fill-opacity:1;">
  <use xlink:href="#glyph0-1" x="208.5" y="56"/>
  <use xlink:href="#glyph0-2" x="217.5" y="56"/>
  <use xlink:href="#glyph0-3" x="222.5" y="56"/>
  <use xlink:href="#glyph0-4" x="232.5" y="56"/>
  <use xlink:href="#glyph0-5" x="241.5" y="56"/>
  <use xlink:href="#glyph0-6" x="247.5" y="56"/>
  <use xlink:href="#glyph0-7" x="256.5" y="56"/>
  <use xlink:href="#glyph0-8" x="262.5" y="56"/>
  <use xlink:href="#glyph0-5" x="266.5" y="56"/>
  <use xlink:href="#glyph0-9" x="272.5" y="56"/>
  <use xlink:href="#glyph0-2" x="281.5" y="56"/>
  <use xlink:href="#glyph0-10" x="286.5" y="56"/>
  <use xlink:href="#glyph0-11" x="295.5" y="56"/>
  <use xlink:href="#glyph0-2" x="304.5" y="56"/>
  <use xlink:href="#glyph0-12" x="309.5" y="56"/>
  <use xlink:href="#glyph0-13" x="313.5" y="56"/>
  <use xlink:href="#glyph0-17" x="317.5" y="56"/>
  <use xlink:href="#glyph0-18" x="321.5" y="56"/>
  <use xlink:href="#glyph0-19" x="330.5" y="56"/>
  <use xlink:href="#glyph0-3" x="340.5" y="56"/>
</g>
<path style="fill:none;stroke-width:4;stroke-linecap:round;stroke-linejoin:miter;stroke:rgb(30.588235%,60.392157%,2.352941%);stroke-opacity:1;stroke-miterlimit:10;" d="M 203.667969 209.90625 L 369.140625 99.90625 " transform="matrix(1,0,0,1,67.332031,-27.90625)"/>
<path style="fill-rule:nonzero;fill:rgb(30.588235%,60.392157%,2.352941%);fill-opacity:1;stroke-width:2;stroke-linecap:round;stroke-linejoin:miter;stroke:rgb(100%,100%,100%);stroke-opacity:1;stroke-miterlimit:10;" d="M 373.65625 96.90625 L 360.660156 96.59375 L 368.914063 109.011719 Z M 373.65625 96.90625 " transform="matrix(1,0,0,1,67.332031,-27.90625)"/>
<path style="fill-rule:nonzero;fill:rgb(100%,100%,100%);fill-opacity:1;stroke-width:4;stroke-linecap:round;stroke-linejoin:miter;stroke:rgb(30.588235%,60.392157%,2.352941%);stroke-opacity:1;stroke-miterlimit:10;" d="M 310.167969 63.90625 L 446.167969 63.90625 C 446.167969 63.90625 456.167969 78.90625 446.167969 93.90625 L 310.167969 93.90625 C 310.167969 93.90625 300.167969 78.90625 310.167969 63.90625 " transform="matrix(1,0,0,1,67.332031,-27.90625)"/>
<g style="fill:rgb(0%,0%,0%);fill-opacity:1;">
  <use xlink:href="#glyph0-1" x="378.5" y="56"/>
  <use xlink:href="#glyph0-2" x="387.5" y="56"/>
  <use xlink:href="#glyph0-3" x="392.5" y="56"/>
  <use xlink:href="#glyph0-4" x="402.5" y="56"/>
  <use xlink:href="#glyph0-5" x="411.5" y="56"/>
  <use xlink:href="#glyph0-6" x="417.5" y="56"/>
  <use xlink:href="#glyph0-7" x="426.5" y="56"/>
  <use xlink:href="#glyph0-8" x="432.5" y="56"/>
  <use xlink:href="#glyph0-5" x="436.5" y="56"/>
  <use xlink:href="#glyph0-9" x="442.5" y="56"/>
  <use xlink:href="#glyph0-2" x="451.5" y="56"/>
  <use xlink:href="#glyph0-10" x="456.5" y="56"/>
  <use xlink:href="#glyph0-11" x="465.5" y="56"/>
  <use xlink:href="#glyph0-2" x="474.5" y="56"/>
  <use xlink:href="#glyph0-12" x="479.5" y="56"/>
  <use xlink:href="#glyph0-13" x="483.5" y="56"/>
  <use xlink:href="#glyph0-17" x="487.5" y="56"/>
  <use xlink:href="#glyph0-19" x="491.5" y="56"/>
  <use xlink:href="#glyph0-16" x="501.5" y="56"/>
</g>
<path style="fill-rule:nonzero;fill:rgb(100%,100%,100%);fill-opacity:1;stroke-width:4;stroke-linecap:round;stroke-linejoin:miter;stroke:rgb(30.588235%,60.392157%,2.352941%);stroke-opacity:1;stroke-miterlimit:10;" d="M 123.667969 209.90625 L 283.667969 209.90625 C 283.667969 209.90625 293.667969 224.90625 283.667969 239.90625 L 123.667969 239.90625 C 123.667969 239.90625 113.667969 224.90625 123.667969 209.90625 " transform="matrix(1,0,0,1,67.332031,-27.90625)"/>
<g style="fill:rgb(0%,0%,0%);fill-opacity:1;">
  <use xlink:href="#glyph0-15" x="192" y="202"/>
  <use xlink:href="#glyph0-20" x="202" y="202"/>
  <use xlink:href="#glyph0-21" x="214" y="202"/>
  <use xlink:href="#glyph0-18" x="225" y="202"/>
  <use xlink:href="#glyph0-22" x="234" y="202"/>
  <use xlink:href="#glyph0-17" x="243" y="202"/>
  <use xlink:href="#glyph0-23" x="247" y="202"/>
  <use xlink:href="#glyph0-2" x="255" y="202"/>
  <use xlink:href="#glyph0-16" x="260" y="202"/>
  <use xlink:href="#glyph0-22" x="271" y="202"/>
  <use xlink:href="#glyph0-2" x="280" y="202"/>
  <use xlink:href="#glyph0-24" x="285" y="202"/>
  <use xlink:href="#glyph0-22" x="296" y="202"/>
  <use xlink:href="#glyph0-18" x="305" y="202"/>
  <use xlink:href="#glyph0-25" x="314" y="202"/>
  <use xlink:href="#glyph0-17" x="323" y="202"/>
  <use xlink:href="#glyph0-20" x="327" y="202"/>
  <use xlink:href="#glyph0-21" x="339" y="202"/>
</g>
<path style="fill:none;stroke-width:4;stroke-linecap:round;stroke-linejoin:miter;stroke:rgb(30.588235%,60.392157%,2.352941%);stroke-opacity:1;stroke-miterlimit:10;" d="M 803.167969 355.90625 L 744.847656 245.90625 " transform="matrix(1,0,0,1,67.332031,-27.90625)"/>
<path style="fill-rule:nonzero;fill:rgb(30.588235%,60.392157%,2.352941%);fill-opacity:1;stroke-width:2;stroke-linecap:round;stroke-linejoin:miter;stroke:rgb(100%,100%,100%);stroke-opacity:1;stroke-miterlimit:10;" d="M 743.257813 242.90625 L 741.660156 255.808594 L 754.835938 248.820312 Z M 743.257813 242.90625 " transform="matrix(1,0,0,1,67.332031,-27.90625)"/>
<path style="fill:none;stroke-width:4;stroke-linecap:round;stroke-linejoin:miter;stroke:rgb(30.588235%,60.392157%,2.352941%);stroke-opacity:1;stroke-miterlimit:10;" d="M 741.667969 209.90625 L 556.753906 99.90625 " transform="matrix(1,0,0,1,67.332031,-27.90625)"/>
<path style="fill-rule:nonzero;fill:rgb(30.588235%,60.392157%,2.352941%);fill-opacity:1;stroke-width:2;stroke-linecap:round;stroke-linejoin:miter;stroke:rgb(100%,100%,100%);stroke-opacity:1;stroke-miterlimit:10;" d="M 551.710938 96.90625 L 557.050781 108.757812 L 564.675781 95.941406 Z M 551.710938 96.90625 " transform="matrix(1,0,0,1,67.332031,-27.90625)"/>
<path style="fill-rule:nonzero;fill:rgb(100%,100%,100%);fill-opacity:1;stroke-width:4;stroke-linecap:round;stroke-linejoin:miter;stroke:rgb(30.588235%,60.392157%,2.352941%);stroke-opacity:1;stroke-miterlimit:10;" d="M 472.167969 45.90625 L 621.167969 45.90625 C 621.167969 45.90625 631.167969 69.90625 621.167969 93.90625 L 472.167969 93.90625 C 472.167969 93.90625 462.167969 69.90625 472.167969 45.90625 " transform="matrix(1,0,0,1,67.332031,-27.90625)"/>
<g style="fill:rgb(0%,0%,0%);fill-opacity:1;">
  <use xlink:href="#glyph0-15" x="540.5" y="38"/>
  <use xlink:href="#glyph0-6" x="550.5" y="38"/>
  <use xlink:href="#glyph0-7" x="559.5" y="38"/>
  <use xlink:href="#glyph0-26" x="565.5" y="38"/>
  <use xlink:href="#glyph0-27" x="574.5" y="38"/>
  <use xlink:href="#glyph0-2" x="582.5" y="38"/>
  <use xlink:href="#glyph0-22" x="587.5" y="38"/>
  <use xlink:href="#glyph0-28" x="596.5" y="38"/>
  <use xlink:href="#glyph0-27" x="605.5" y="38"/>
  <use xlink:href="#glyph0-11" x="613.5" y="38"/>
  <use xlink:href="#glyph0-8" x="622.5" y="38"/>
  <use xlink:href="#glyph0-29" x="626.5" y="38"/>
  <use xlink:href="#glyph0-30" x="635.5" y="38"/>
  <use xlink:href="#glyph0-28" x="644.5" y="38"/>
  <use xlink:href="#glyph0-5" x="653.5" y="38"/>
  <use xlink:href="#glyph0-27" x="659.5" y="38"/>
  <use xlink:href="#glyph0-2" x="667.5" y="38"/>
  <use xlink:href="#glyph0-11" x="672.5" y="38"/>
  <use xlink:href="#glyph0-5" x="681.5" y="38"/>
</g>
<g style="fill:rgb(0%,0%,0%);fill-opacity:1;">
  <use xlink:href="#glyph0-31" x="540.5" y="56"/>
  <use xlink:href="#glyph0-32" x="548.5" y="56"/>
  <use xlink:href="#glyph0-11" x="557.5" y="56"/>
  <use xlink:href="#glyph0-7" x="566.5" y="56"/>
  <use xlink:href="#glyph0-31" x="572.5" y="56"/>
  <use xlink:href="#glyph0-32" x="580.5" y="56"/>
  <use xlink:href="#glyph0-11" x="589.5" y="56"/>
  <use xlink:href="#glyph0-4" x="598.5" y="56"/>
  <use xlink:href="#glyph0-7" x="607.5" y="56"/>
  <use xlink:href="#glyph0-27" x="613.5" y="56"/>
</g>
<path style="fill:none;stroke-width:4;stroke-linecap:round;stroke-linejoin:miter;stroke:rgb(30.588235%,60.392157%,2.352941%);stroke-opacity:1;stroke-miterlimit:10;" d="M 741.667969 209.90625 L 743.089844 99.90625 " transform="matrix(1,0,0,1,67.332031,-27.90625)"/>
<path style="fill-rule:nonzero;fill:rgb(30.588235%,60.392157%,2.352941%);fill-opacity:1;stroke-width:2;stroke-linecap:round;stroke-linejoin:miter;stroke:rgb(100%,100%,100%);stroke-opacity:1;stroke-miterlimit:10;" d="M 743.128906 96.90625 L 735.535156 107.457031 L 750.449219 107.652344 Z M 743.128906 96.90625 " transform="matrix(1,0,0,1,67.332031,-27.90625)"/>
<path style="fill-rule:nonzero;fill:rgb(100%,100%,100%);fill-opacity:1;stroke-width:4;stroke-linecap:round;stroke-linejoin:miter;stroke:rgb(30.588235%,60.392157%,2.352941%);stroke-opacity:1;stroke-miterlimit:10;" d="M 647.167969 45.90625 L 839.167969 45.90625 C 839.167969 45.90625 849.167969 69.90625 839.167969 93.90625 L 647.167969 93.90625 C 647.167969 93.90625 637.167969 69.90625 647.167969 45.90625 " transform="matrix(1,0,0,1,67.332031,-27.90625)"/>
<g style="fill:rgb(0%,0%,0%);fill-opacity:1;">
  <use xlink:href="#glyph0-1" x="715.5" y="38"/>
  <use xlink:href="#glyph0-2" x="724.5" y="38"/>
  <use xlink:href="#glyph0-19" x="729.5" y="38"/>
  <use xlink:href="#glyph0-11" x="739.5" y="38"/>
  <use xlink:href="#glyph0-26" x="748.5" y="38"/>
  <use xlink:href="#glyph0-7" x="757.5" y="38"/>
  <use xlink:href="#glyph0-11" x="763.5" y="38"/>
  <use xlink:href="#glyph0-27" x="772.5" y="38"/>
  <use xlink:href="#glyph0-11" x="780.5" y="38"/>
  <use xlink:href="#glyph0-28" x="789.5" y="38"/>
  <use xlink:href="#glyph0-5" x="798.5" y="38"/>
  <use xlink:href="#glyph0-30" x="804.5" y="38"/>
  <use xlink:href="#glyph0-28" x="813.5" y="38"/>
  <use xlink:href="#glyph0-5" x="822.5" y="38"/>
  <use xlink:href="#glyph0-2" x="828.5" y="38"/>
  <use xlink:href="#glyph0-33" x="833.5" y="38"/>
  <use xlink:href="#glyph0-11" x="842.5" y="38"/>
  <use xlink:href="#glyph0-7" x="851.5" y="38"/>
  <use xlink:href="#glyph0-27" x="857.5" y="38"/>
  <use xlink:href="#glyph0-6" x="865.5" y="38"/>
  <use xlink:href="#glyph0-28" x="874.5" y="38"/>
  <use xlink:href="#glyph0-28" x="883.5" y="38"/>
  <use xlink:href="#glyph0-11" x="892.5" y="38"/>
  <use xlink:href="#glyph0-12" x="901.5" y="38"/>
</g>
<g style="fill:rgb(0%,0%,0%);fill-opacity:1;">
  <use xlink:href="#glyph0-5" x="715.5" y="56"/>
  <use xlink:href="#glyph0-11" x="721.5" y="56"/>
  <use xlink:href="#glyph0-31" x="730.5" y="56"/>
  <use xlink:href="#glyph0-32" x="738.5" y="56"/>
  <use xlink:href="#glyph0-28" x="747.5" y="56"/>
  <use xlink:href="#glyph0-8" x="756.5" y="56"/>
  <use xlink:href="#glyph0-34" x="760.5" y="56"/>
  <use xlink:href="#glyph0-4" x="769.5" y="56"/>
  <use xlink:href="#glyph0-11" x="778.5" y="56"/>
</g>
<path style="fill:none;stroke-width:4;stroke-linecap:round;stroke-linejoin:miter;stroke:rgb(30.588235%,60.392157%,2.352941%);stroke-opacity:1;stroke-miterlimit:10;" d="M 741.667969 209.90625 L 928.003906 99.90625 " transform="matrix(1,0,0,1,67.332031,-27.90625)"/>
<path style="fill-rule:nonzero;fill:rgb(30.588235%,60.392157%,2.352941%);fill-opacity:1;stroke-width:2;stroke-linecap:round;stroke-linejoin:miter;stroke:rgb(100%,100%,100%);stroke-opacity:1;stroke-miterlimit:10;" d="M 933.085938 96.90625 L 920.125 95.898438 L 927.707031 108.742188 Z M 933.085938 96.90625 " transform="matrix(1,0,0,1,67.332031,-27.90625)"/>
<path style="fill-rule:nonzero;fill:rgb(100%,100%,100%);fill-opacity:1;stroke-width:4;stroke-linecap:round;stroke-linejoin:miter;stroke:rgb(30.588235%,60.392157%,2.352941%);stroke-opacity:1;stroke-miterlimit:10;" d="M 865.167969 45.90625 L 1011.167969 45.90625 C 1011.167969 45.90625 1021.167969 69.90625 1011.167969 93.90625 L 865.167969 93.90625 C 865.167969 93.90625 855.167969 69.90625 865.167969 45.90625 " transform="matrix(1,0,0,1,67.332031,-27.90625)"/>
<g style="fill:rgb(0%,0%,0%);fill-opacity:1;">
  <use xlink:href="#glyph0-1" x="933.5" y="38"/>
  <use xlink:href="#glyph0-2" x="942.5" y="38"/>
  <use xlink:href="#glyph0-19" x="947.5" y="38"/>
  <use xlink:href="#glyph0-11" x="957.5" y="38"/>
  <use xlink:href="#glyph0-26" x="966.5" y="38"/>
  <use xlink:href="#glyph0-7" x="975.5" y="38"/>
  <use xlink:href="#glyph0-11" x="981.5" y="38"/>
  <use xlink:href="#glyph0-27" x="990.5" y="38"/>
  <use xlink:href="#glyph0-11" x="998.5" y="38"/>
  <use xlink:href="#glyph0-28" x="1007.5" y="38"/>
  <use xlink:href="#glyph0-5" x="1016.5" y="38"/>
  <use xlink:href="#glyph0-30" x="1022.5" y="38"/>
  <use xlink:href="#glyph0-28" x="1031.5" y="38"/>
  <use xlink:href="#glyph0-5" x="1040.5" y="38"/>
  <use xlink:href="#glyph0-2" x="1046.5" y="38"/>
  <use xlink:href="#glyph0-10" x="1051.5" y="38"/>
  <use xlink:href="#glyph0-11" x="1060.5" y="38"/>
  <use xlink:href="#glyph0-27" x="1069.5" y="38"/>
</g>
<g style="fill:rgb(0%,0%,0%);fill-opacity:1;">
  <use xlink:href="#glyph0-3" x="933.5" y="56"/>
  <use xlink:href="#glyph0-26" x="943.5" y="56"/>
  <use xlink:href="#glyph0-26" x="952.5" y="56"/>
  <use xlink:href="#glyph0-7" x="961.5" y="56"/>
  <use xlink:href="#glyph0-11" x="967.5" y="56"/>
  <use xlink:href="#glyph0-28" x="976.5" y="56"/>
  <use xlink:href="#glyph0-30" x="985.5" y="56"/>
  <use xlink:href="#glyph0-28" x="994.5" y="56"/>
  <use xlink:href="#glyph0-5" x="1003.5" y="56"/>
  <use xlink:href="#glyph0-27" x="1009.5" y="56"/>
</g>
<path style="fill-rule:nonzero;fill:rgb(100%,100%,100%);fill-opacity:1;stroke-width:4;stroke-linecap:round;stroke-linejoin:miter;stroke:rgb(30.588235%,60.392157%,2.352941%);stroke-opacity:1;stroke-miterlimit:10;" d="M 656.667969 209.90625 L 826.667969 209.90625 C 826.667969 209.90625 836.667969 224.90625 826.667969 239.90625 L 656.667969 239.90625 C 656.667969 239.90625 646.667969 224.90625 656.667969 209.90625 " transform="matrix(1,0,0,1,67.332031,-27.90625)"/>
<g style="fill:rgb(0%,0%,0%);fill-opacity:1;">
  <use xlink:href="#glyph0-15" x="725" y="202"/>
  <use xlink:href="#glyph0-20" x="735" y="202"/>
  <use xlink:href="#glyph0-21" x="747" y="202"/>
  <use xlink:href="#glyph0-18" x="758" y="202"/>
  <use xlink:href="#glyph0-22" x="767" y="202"/>
  <use xlink:href="#glyph0-17" x="776" y="202"/>
  <use xlink:href="#glyph0-23" x="780" y="202"/>
  <use xlink:href="#glyph0-2" x="788" y="202"/>
  <use xlink:href="#glyph0-18" x="793" y="202"/>
  <use xlink:href="#glyph0-15" x="802" y="202"/>
  <use xlink:href="#glyph0-17" x="812" y="202"/>
  <use xlink:href="#glyph0-22" x="816" y="202"/>
  <use xlink:href="#glyph0-21" x="825" y="202"/>
  <use xlink:href="#glyph0-25" x="836" y="202"/>
  <use xlink:href="#glyph0-17" x="845" y="202"/>
  <use xlink:href="#glyph0-35" x="849" y="202"/>
  <use xlink:href="#glyph0-17" x="857" y="202"/>
  <use xlink:href="#glyph0-36" x="861" y="202"/>
  <use xlink:href="#glyph0-14" x="873" y="202"/>
  <use xlink:href="#glyph0-22" x="884" y="202"/>
</g>
<path style="fill:none;stroke-width:4;stroke-linecap:round;stroke-linejoin:miter;stroke:rgb(30.588235%,60.392157%,2.352941%);stroke-opacity:1;stroke-miterlimit:10;" d="M 803.167969 355.90625 L 1260.710938 245.90625 " transform="matrix(1,0,0,1,67.332031,-27.90625)"/>
<path style="fill-rule:nonzero;fill:rgb(30.588235%,60.392157%,2.352941%);fill-opacity:1;stroke-width:2;stroke-linecap:round;stroke-linejoin:miter;stroke:rgb(100%,100%,100%);stroke-opacity:1;stroke-miterlimit:10;" d="M 1273.191406 242.90625 L 1261.09375 238.144531 L 1264.578125 252.644531 Z M 1273.191406 242.90625 " transform="matrix(1,0,0,1,67.332031,-27.90625)"/>
<path style="fill:none;stroke-width:4;stroke-linecap:round;stroke-linejoin:miter;stroke:rgb(30.588235%,60.392157%,2.352941%);stroke-opacity:1;stroke-miterlimit:10;" d="M 1285.667969 191.90625 L 1144.375 81.90625 " transform="matrix(1,0,0,1,67.332031,-27.90625)"/>
<path style="fill-rule:nonzero;fill:rgb(30.588235%,60.392157%,2.352941%);fill-opacity:1;stroke-width:2;stroke-linecap:round;stroke-linejoin:miter;stroke:rgb(100%,100%,100%);stroke-opacity:1;stroke-miterlimit:10;" d="M 1140.519531 78.90625 L 1144.34375 91.332031 L 1153.503906 79.5625 Z M 1140.519531 78.90625 " transform="matrix(1,0,0,1,67.332031,-27.90625)"/>
<path style="fill-rule:nonzero;fill:rgb(100%,100%,100%);fill-opacity:1;stroke-width:4;stroke-linecap:round;stroke-linejoin:miter;stroke:rgb(30.588235%,60.392157%,2.352941%);stroke-opacity:1;stroke-miterlimit:10;" d="M 1037.167969 45.90625 L 1236.167969 45.90625 C 1236.167969 45.90625 1246.167969 60.90625 1236.167969 75.90625 L 1037.167969 75.90625 C 1037.167969 75.90625 1027.167969 60.90625 1037.167969 45.90625 " transform="matrix(1,0,0,1,67.332031,-27.90625)"/>
<g style="fill:rgb(0%,0%,0%);fill-opacity:1;">
  <use xlink:href="#glyph0-22" x="1105.5" y="38"/>
  <use xlink:href="#glyph0-28" x="1114.5" y="38"/>
  <use xlink:href="#glyph0-27" x="1123.5" y="38"/>
  <use xlink:href="#glyph0-11" x="1131.5" y="38"/>
  <use xlink:href="#glyph0-8" x="1140.5" y="38"/>
  <use xlink:href="#glyph0-29" x="1144.5" y="38"/>
  <use xlink:href="#glyph0-28" x="1153.5" y="38"/>
  <use xlink:href="#glyph0-30" x="1162.5" y="38"/>
  <use xlink:href="#glyph0-28" x="1171.5" y="38"/>
  <use xlink:href="#glyph0-5" x="1180.5" y="38"/>
  <use xlink:href="#glyph0-27" x="1186.5" y="38"/>
  <use xlink:href="#glyph0-2" x="1194.5" y="38"/>
  <use xlink:href="#glyph0-11" x="1199.5" y="38"/>
  <use xlink:href="#glyph0-5" x="1208.5" y="38"/>
  <use xlink:href="#glyph0-2" x="1214.5" y="38"/>
  <use xlink:href="#glyph0-15" x="1219.5" y="38"/>
  <use xlink:href="#glyph0-32" x="1229.5" y="38"/>
  <use xlink:href="#glyph0-11" x="1238.5" y="38"/>
  <use xlink:href="#glyph0-7" x="1247.5" y="38"/>
  <use xlink:href="#glyph0-31" x="1253.5" y="38"/>
  <use xlink:href="#glyph0-32" x="1261.5" y="38"/>
  <use xlink:href="#glyph0-11" x="1270.5" y="38"/>
  <use xlink:href="#glyph0-4" x="1279.5" y="38"/>
  <use xlink:href="#glyph0-7" x="1288.5" y="38"/>
  <use xlink:href="#glyph0-27" x="1294.5" y="38"/>
</g>
<path style="fill:none;stroke-width:4;stroke-linecap:round;stroke-linejoin:miter;stroke:rgb(30.588235%,60.392157%,2.352941%);stroke-opacity:1;stroke-miterlimit:10;" d="M 1285.667969 191.90625 L 1334.976563 81.90625 " transform="matrix(1,0,0,1,67.332031,-27.90625)"/>
<path style="fill-rule:nonzero;fill:rgb(30.588235%,60.392157%,2.352941%);fill-opacity:1;stroke-width:2;stroke-linecap:round;stroke-linejoin:miter;stroke:rgb(100%,100%,100%);stroke-opacity:1;stroke-miterlimit:10;" d="M 1336.324219 78.90625 L 1325.164063 85.574219 L 1338.769531 91.671875 Z M 1336.324219 78.90625 " transform="matrix(1,0,0,1,67.332031,-27.90625)"/>
<path style="fill-rule:nonzero;fill:rgb(100%,100%,100%);fill-opacity:1;stroke-width:4;stroke-linecap:round;stroke-linejoin:miter;stroke:rgb(30.588235%,60.392157%,2.352941%);stroke-opacity:1;stroke-miterlimit:10;" d="M 1262.167969 45.90625 L 1413.167969 45.90625 C 1413.167969 45.90625 1423.167969 60.90625 1413.167969 75.90625 L 1262.167969 75.90625 C 1262.167969 75.90625 1252.167969 60.90625 1262.167969 45.90625 " transform="matrix(1,0,0,1,67.332031,-27.90625)"/>
<g style="fill:rgb(0%,0%,0%);fill-opacity:1;">
  <use xlink:href="#glyph0-33" x="1330.5" y="38"/>
  <use xlink:href="#glyph0-11" x="1339.5" y="38"/>
  <use xlink:href="#glyph0-7" x="1348.5" y="38"/>
  <use xlink:href="#glyph0-27" x="1354.5" y="38"/>
  <use xlink:href="#glyph0-6" x="1362.5" y="38"/>
  <use xlink:href="#glyph0-28" x="1371.5" y="38"/>
  <use xlink:href="#glyph0-28" x="1380.5" y="38"/>
  <use xlink:href="#glyph0-11" x="1389.5" y="38"/>
  <use xlink:href="#glyph0-12" x="1398.5" y="38"/>
  <use xlink:href="#glyph0-2" x="1402.5" y="38"/>
  <use xlink:href="#glyph0-5" x="1407.5" y="38"/>
  <use xlink:href="#glyph0-11" x="1413.5" y="38"/>
  <use xlink:href="#glyph0-31" x="1422.5" y="38"/>
  <use xlink:href="#glyph0-32" x="1430.5" y="38"/>
  <use xlink:href="#glyph0-28" x="1439.5" y="38"/>
  <use xlink:href="#glyph0-8" x="1448.5" y="38"/>
  <use xlink:href="#glyph0-34" x="1452.5" y="38"/>
  <use xlink:href="#glyph0-4" x="1461.5" y="38"/>
  <use xlink:href="#glyph0-11" x="1470.5" y="38"/>
</g>
<path style="fill:none;stroke-width:4;stroke-linecap:round;stroke-linejoin:miter;stroke:rgb(30.588235%,60.392157%,2.352941%);stroke-opacity:1;stroke-miterlimit:10;" d="M 1285.667969 191.90625 L 1476.269531 81.90625 " transform="matrix(1,0,0,1,67.332031,-27.90625)"/>
<path style="fill-rule:nonzero;fill:rgb(30.588235%,60.392157%,2.352941%);fill-opacity:1;stroke-width:2;stroke-linecap:round;stroke-linejoin:miter;stroke:rgb(100%,100%,100%);stroke-opacity:1;stroke-miterlimit:10;" d="M 1481.46875 78.90625 L 1468.519531 77.769531 L 1475.972656 90.6875 Z M 1481.46875 78.90625 " transform="matrix(1,0,0,1,67.332031,-27.90625)"/>
<path style="fill-rule:nonzero;fill:rgb(100%,100%,100%);fill-opacity:1;stroke-width:4;stroke-linecap:round;stroke-linejoin:miter;stroke:rgb(30.588235%,60.392157%,2.352941%);stroke-opacity:1;stroke-miterlimit:10;" d="M 1439.167969 45.90625 L 1534.167969 45.90625 C 1534.167969 45.90625 1544.167969 60.90625 1534.167969 75.90625 L 1439.167969 75.90625 C 1439.167969 75.90625 1429.167969 60.90625 1439.167969 45.90625 " transform="matrix(1,0,0,1,67.332031,-27.90625)"/>
<g style="fill:rgb(0%,0%,0%);fill-opacity:1;">
  <use xlink:href="#glyph0-3" x="1507.5" y="38"/>
  <use xlink:href="#glyph0-26" x="1517.5" y="38"/>
  <use xlink:href="#glyph0-26" x="1526.5" y="38"/>
  <use xlink:href="#glyph0-7" x="1535.5" y="38"/>
  <use xlink:href="#glyph0-11" x="1541.5" y="38"/>
  <use xlink:href="#glyph0-28" x="1550.5" y="38"/>
  <use xlink:href="#glyph0-28" x="1559.5" y="38"/>
  <use xlink:href="#glyph0-30" x="1568.5" y="38"/>
  <use xlink:href="#glyph0-28" x="1577.5" y="38"/>
  <use xlink:href="#glyph0-5" x="1586.5" y="38"/>
  <use xlink:href="#glyph0-27" x="1592.5" y="38"/>
</g>
<path style="fill-rule:nonzero;fill:rgb(100%,100%,100%);fill-opacity:1;stroke-width:4;stroke-linecap:round;stroke-linejoin:miter;stroke:rgb(30.588235%,60.392157%,2.352941%);stroke-opacity:1;stroke-miterlimit:10;" d="M 1229.167969 191.90625 L 1342.167969 191.90625 C 1342.167969 191.90625 1352.167969 215.90625 1342.167969 239.90625 L 1229.167969 239.90625 C 1229.167969 239.90625 1219.167969 215.90625 1229.167969 191.90625 " transform="matrix(1,0,0,1,67.332031,-27.90625)"/>
<g style="fill:rgb(0%,0%,0%);fill-opacity:1;">
  <use xlink:href="#glyph0-3" x="1297.5" y="184"/>
  <use xlink:href="#glyph0-18" x="1307.5" y="184"/>
  <use xlink:href="#glyph0-18" x="1316.5" y="184"/>
  <use xlink:href="#glyph0-22" x="1325.5" y="184"/>
  <use xlink:href="#glyph0-37" x="1334.5" y="184"/>
  <use xlink:href="#glyph0-38" x="1347.5" y="184"/>
  <use xlink:href="#glyph0-23" x="1357.5" y="184"/>
  <use xlink:href="#glyph0-22" x="1365.5" y="184"/>
  <use xlink:href="#glyph0-22" x="1374.5" y="184"/>
  <use xlink:href="#glyph0-2" x="1383.5" y="184"/>
  <use xlink:href="#glyph0-16" x="1388.5" y="184"/>
  <use xlink:href="#glyph0-22" x="1399.5" y="184"/>
</g>
<g style="fill:rgb(0%,0%,0%);fill-opacity:1;">
  <use xlink:href="#glyph0-23" x="1297.5" y="202"/>
  <use xlink:href="#glyph0-3" x="1305.5" y="202"/>
  <use xlink:href="#glyph0-38" x="1315.5" y="202"/>
  <use xlink:href="#glyph0-20" x="1325.5" y="202"/>
  <use xlink:href="#glyph0-19" x="1336.5" y="202"/>
  <use xlink:href="#glyph0-3" x="1346.5" y="202"/>
  <use xlink:href="#glyph0-25" x="1354.5" y="202"/>
  <use xlink:href="#glyph0-20" x="1363.5" y="202"/>
  <use xlink:href="#glyph0-17" x="1375.5" y="202"/>
  <use xlink:href="#glyph0-19" x="1379.5" y="202"/>
  <use xlink:href="#glyph0-22" x="1389.5" y="202"/>
</g>
<path style="fill:none;stroke-width:4;stroke-linecap:round;stroke-linejoin:miter;stroke:rgb(30.588235%,60.392157%,2.352941%);stroke-opacity:1;stroke-miterlimit:10;" d="M 803.167969 355.90625 L 1561.316406 245.90625 " transform="matrix(1,0,0,1,67.332031,-27.90625)"/>
<path style="fill-rule:nonzero;fill:rgb(30.588235%,60.392157%,2.352941%);fill-opacity:1;stroke-width:2;stroke-linecap:round;stroke-linejoin:miter;stroke:rgb(100%,100%,100%);stroke-opacity:1;stroke-miterlimit:10;" d="M 1581.992188 242.90625 L 1570.382813 237.054688 L 1572.523438 251.816406 Z M 1581.992188 242.90625 " transform="matrix(1,0,0,1,67.332031,-27.90625)"/>
<path style="fill-rule:nonzero;fill:rgb(100%,100%,100%);fill-opacity:1;stroke-width:4;stroke-linecap:round;stroke-linejoin:miter;stroke:rgb(30.588235%,60.392157%,2.352941%);stroke-opacity:1;stroke-miterlimit:10;" d="M 1560.167969 209.90625 L 1645.167969 209.90625 C 1645.167969 209.90625 1655.167969 224.90625 1645.167969 239.90625 L 1560.167969 239.90625 C 1560.167969 239.90625 1550.167969 224.90625 1560.167969 209.90625 " transform="matrix(1,0,0,1,67.332031,-27.90625)"/>
<g style="fill:rgb(0%,0%,0%);fill-opacity:1;">
  <use xlink:href="#glyph0-16" x="1628.5" y="202"/>
  <use xlink:href="#glyph0-17" x="1639.5" y="202"/>
  <use xlink:href="#glyph0-19" x="1643.5" y="202"/>
  <use xlink:href="#glyph0-22" x="1653.5" y="202"/>
  <use xlink:href="#glyph0-15" x="1662.5" y="202"/>
  <use xlink:href="#glyph0-25" x="1672.5" y="202"/>
  <use xlink:href="#glyph0-22" x="1681.5" y="202"/>
  <use xlink:href="#glyph0-14" x="1690.5" y="202"/>
  <use xlink:href="#glyph0-19" x="1701.5" y="202"/>
</g>
<path style="fill-rule:nonzero;fill:rgb(100%,100%,100%);fill-opacity:1;stroke-width:4;stroke-linecap:round;stroke-linejoin:miter;stroke:rgb(30.588235%,60.392157%,2.352941%);stroke-opacity:1;stroke-miterlimit:10;" d="M 745.167969 355.90625 L 861.167969 355.90625 C 861.167969 355.90625 871.167969 370.90625 861.167969 385.90625 L 745.167969 385.90625 C 745.167969 385.90625 735.167969 370.90625 745.167969 355.90625 " transform="matrix(1,0,0,1,67.332031,-27.90625)"/>
<g style="fill:rgb(0%,0%,0%);fill-opacity:1;">
  <use xlink:href="#glyph0-24" x="813.5" y="348"/>
  <use xlink:href="#glyph0-20" x="824.5" y="348"/>
  <use xlink:href="#glyph0-14" x="836.5" y="348"/>
  <use xlink:href="#glyph0-39" x="847.5" y="348"/>
  <use xlink:href="#glyph0-22" x="857.5" y="348"/>
  <use xlink:href="#glyph0-19" x="866.5" y="348"/>
  <use xlink:href="#glyph0-21" x="876.5" y="348"/>
  <use xlink:href="#glyph0-3" x="887.5" y="348"/>
  <use xlink:href="#glyph0-21" x="897.5" y="348"/>
  <use xlink:href="#glyph0-15" x="908.5" y="348"/>
  <use xlink:href="#glyph0-22" x="918.5" y="348"/>
</g>
<path style="fill:none;stroke-width:4;stroke-linecap:round;stroke-linejoin:miter;stroke:rgb(95.294118%,45.098039%,16.078431%);stroke-opacity:1;stroke-miterlimit:10;" d="M 803.167969 516.90625 L 569.867188 641.90625 " transform="matrix(1,0,0,1,67.332031,-27.90625)"/>
<path style="fill-rule:nonzero;fill:rgb(95.294118%,45.098039%,16.078431%);fill-opacity:1;stroke-width:2;stroke-linecap:round;stroke-linejoin:miter;stroke:rgb(100%,100%,100%);stroke-opacity:1;stroke-miterlimit:10;" d="M 564.265625 644.90625 L 577.175781 646.449219 L 570.132813 633.304688 Z M 564.265625 644.90625 " transform="matrix(1,0,0,1,67.332031,-27.90625)"/>
<path style="fill:none;stroke-width:4;stroke-linecap:round;stroke-linejoin:miter;stroke:rgb(95.294118%,45.098039%,16.078431%);stroke-opacity:1;stroke-miterlimit:10;" d="M 558.667969 677.90625 L 360.476563 787.90625 " transform="matrix(1,0,0,1,67.332031,-27.90625)"/>
<path style="fill-rule:nonzero;fill:rgb(95.294118%,45.098039%,16.078431%);fill-opacity:1;stroke-width:2;stroke-linecap:round;stroke-linejoin:miter;stroke:rgb(100%,100%,100%);stroke-opacity:1;stroke-miterlimit:10;" d="M 355.074219 790.90625 L 368.003906 792.257812 L 360.765625 779.21875 Z M 355.074219 790.90625 " transform="matrix(1,0,0,1,67.332031,-27.90625)"/>
<path style="fill-rule:nonzero;fill:rgb(100%,100%,100%);fill-opacity:1;stroke-width:4;stroke-linecap:round;stroke-linejoin:miter;stroke:rgb(95.294118%,45.098039%,16.078431%);stroke-opacity:1;stroke-miterlimit:10;" d="M 307.167969 793.90625 L 392.167969 793.90625 C 392.167969 793.90625 402.167969 808.90625 392.167969 823.90625 L 307.167969 823.90625 C 307.167969 823.90625 297.167969 808.90625 307.167969 793.90625 " transform="matrix(1,0,0,1,67.332031,-27.90625)"/>
<g style="fill:rgb(0%,0%,0%);fill-opacity:1;">
  <use xlink:href="#glyph0-15" x="375.5" y="786"/>
  <use xlink:href="#glyph0-32" x="385.5" y="786"/>
  <use xlink:href="#glyph0-11" x="394.5" y="786"/>
  <use xlink:href="#glyph0-7" x="403.5" y="786"/>
  <use xlink:href="#glyph0-31" x="409.5" y="786"/>
  <use xlink:href="#glyph0-32" x="417.5" y="786"/>
  <use xlink:href="#glyph0-11" x="426.5" y="786"/>
  <use xlink:href="#glyph0-4" x="435.5" y="786"/>
  <use xlink:href="#glyph0-7" x="444.5" y="786"/>
  <use xlink:href="#glyph0-27" x="450.5" y="786"/>
</g>
<path style="fill:none;stroke-width:4;stroke-linecap:round;stroke-linejoin:miter;stroke:rgb(95.294118%,45.098039%,16.078431%);stroke-opacity:1;stroke-miterlimit:10;" d="M 558.667969 677.90625 L 510.304688 787.90625 " transform="matrix(1,0,0,1,67.332031,-27.90625)"/>
<path style="fill-rule:nonzero;fill:rgb(95.294118%,45.098039%,16.078431%);fill-opacity:1;stroke-width:2;stroke-linecap:round;stroke-linejoin:miter;stroke:rgb(100%,100%,100%);stroke-opacity:1;stroke-miterlimit:10;" d="M 508.988281 790.90625 L 520.097656 784.160156 L 506.445313 778.15625 Z M 508.988281 790.90625 " transform="matrix(1,0,0,1,67.332031,-27.90625)"/>
<path style="fill-rule:nonzero;fill:rgb(100%,100%,100%);fill-opacity:1;stroke-width:4;stroke-linecap:round;stroke-linejoin:miter;stroke:rgb(95.294118%,45.098039%,16.078431%);stroke-opacity:1;stroke-miterlimit:10;" d="M 418.167969 793.90625 L 597.167969 793.90625 C 597.167969 793.90625 607.167969 808.90625 597.167969 823.90625 L 418.167969 823.90625 C 418.167969 823.90625 408.167969 808.90625 418.167969 793.90625 " transform="matrix(1,0,0,1,67.332031,-27.90625)"/>
<g style="fill:rgb(0%,0%,0%);fill-opacity:1;">
  <use xlink:href="#glyph0-22" x="486.5" y="786"/>
  <use xlink:href="#glyph0-28" x="495.5" y="786"/>
  <use xlink:href="#glyph0-27" x="504.5" y="786"/>
  <use xlink:href="#glyph0-11" x="512.5" y="786"/>
  <use xlink:href="#glyph0-8" x="521.5" y="786"/>
  <use xlink:href="#glyph0-29" x="525.5" y="786"/>
  <use xlink:href="#glyph0-28" x="534.5" y="786"/>
  <use xlink:href="#glyph0-30" x="543.5" y="786"/>
  <use xlink:href="#glyph0-28" x="552.5" y="786"/>
  <use xlink:href="#glyph0-5" x="561.5" y="786"/>
  <use xlink:href="#glyph0-27" x="567.5" y="786"/>
  <use xlink:href="#glyph0-2" x="575.5" y="786"/>
  <use xlink:href="#glyph0-15" x="580.5" y="786"/>
  <use xlink:href="#glyph0-32" x="590.5" y="786"/>
  <use xlink:href="#glyph0-11" x="599.5" y="786"/>
  <use xlink:href="#glyph0-7" x="608.5" y="786"/>
  <use xlink:href="#glyph0-31" x="614.5" y="786"/>
  <use xlink:href="#glyph0-32" x="622.5" y="786"/>
  <use xlink:href="#glyph0-11" x="631.5" y="786"/>
  <use xlink:href="#glyph0-4" x="640.5" y="786"/>
  <use xlink:href="#glyph0-7" x="649.5" y="786"/>
  <use xlink:href="#glyph0-27" x="655.5" y="786"/>
</g>
<path style="fill:none;stroke-width:4;stroke-linecap:round;stroke-linejoin:miter;stroke:rgb(95.294118%,45.098039%,16.078431%);stroke-opacity:1;stroke-miterlimit:10;" d="M 558.667969 677.90625 L 708.496094 787.90625 " transform="matrix(1,0,0,1,67.332031,-27.90625)"/>
<path style="fill-rule:nonzero;fill:rgb(95.294118%,45.098039%,16.078431%);fill-opacity:1;stroke-width:2;stroke-linecap:round;stroke-linejoin:miter;stroke:rgb(100%,100%,100%);stroke-opacity:1;stroke-miterlimit:10;" d="M 712.582031 790.90625 L 708.410156 778.59375 L 699.585938 790.613281 Z M 712.582031 790.90625 " transform="matrix(1,0,0,1,67.332031,-27.90625)"/>
<path style="fill-rule:nonzero;fill:rgb(100%,100%,100%);fill-opacity:1;stroke-width:4;stroke-linecap:round;stroke-linejoin:miter;stroke:rgb(95.294118%,45.098039%,16.078431%);stroke-opacity:1;stroke-miterlimit:10;" d="M 623.167969 793.90625 L 810.167969 793.90625 C 810.167969 793.90625 820.167969 808.90625 810.167969 823.90625 L 623.167969 823.90625 C 623.167969 823.90625 613.167969 808.90625 623.167969 793.90625 " transform="matrix(1,0,0,1,67.332031,-27.90625)"/>
<g style="fill:rgb(0%,0%,0%);fill-opacity:1;">
  <use xlink:href="#glyph0-17" x="691.5" y="786"/>
  <use xlink:href="#glyph0-28" x="695.5" y="786"/>
  <use xlink:href="#glyph0-29" x="704.5" y="786"/>
  <use xlink:href="#glyph0-9" x="713.5" y="786"/>
  <use xlink:href="#glyph0-28" x="722.5" y="786"/>
  <use xlink:href="#glyph0-8" x="731.5" y="786"/>
  <use xlink:href="#glyph0-11" x="735.5" y="786"/>
  <use xlink:href="#glyph0-4" x="744.5" y="786"/>
  <use xlink:href="#glyph0-7" x="753.5" y="786"/>
  <use xlink:href="#glyph0-27" x="759.5" y="786"/>
  <use xlink:href="#glyph0-2" x="767.5" y="786"/>
  <use xlink:href="#glyph0-11" x="772.5" y="786"/>
  <use xlink:href="#glyph0-5" x="781.5" y="786"/>
  <use xlink:href="#glyph0-2" x="787.5" y="786"/>
  <use xlink:href="#glyph0-25" x="792.5" y="786"/>
  <use xlink:href="#glyph0-11" x="799.5" y="786"/>
  <use xlink:href="#glyph0-31" x="808.5" y="786"/>
  <use xlink:href="#glyph0-32" x="816.5" y="786"/>
  <use xlink:href="#glyph0-28" x="825.5" y="786"/>
  <use xlink:href="#glyph0-8" x="834.5" y="786"/>
  <use xlink:href="#glyph0-31" x="838.5" y="786"/>
  <use xlink:href="#glyph0-8" x="846.5" y="786"/>
  <use xlink:href="#glyph0-11" x="850.5" y="786"/>
  <use xlink:href="#glyph0-28" x="859.5" y="786"/>
  <use xlink:href="#glyph0-27" x="868.5" y="786"/>
</g>
<path style="fill-rule:nonzero;fill:rgb(100%,100%,100%);fill-opacity:1;stroke-width:4;stroke-linecap:round;stroke-linejoin:miter;stroke:rgb(95.294118%,45.098039%,16.078431%);stroke-opacity:1;stroke-miterlimit:10;" d="M 513.667969 647.90625 L 603.667969 647.90625 C 603.667969 647.90625 613.667969 662.90625 603.667969 677.90625 L 513.667969 677.90625 C 513.667969 677.90625 503.667969 662.90625 513.667969 647.90625 " transform="matrix(1,0,0,1,67.332031,-27.90625)"/>
<g style="fill:rgb(0%,0%,0%);fill-opacity:1;">
  <use xlink:href="#glyph0-33" x="582" y="640"/>
  <use xlink:href="#glyph0-22" x="591" y="640"/>
  <use xlink:href="#glyph0-19" x="600" y="640"/>
  <use xlink:href="#glyph0-18" x="610" y="640"/>
  <use xlink:href="#glyph0-20" x="619" y="640"/>
  <use xlink:href="#glyph0-21" x="631" y="640"/>
  <use xlink:href="#glyph0-21" x="642" y="640"/>
  <use xlink:href="#glyph0-22" x="653" y="640"/>
  <use xlink:href="#glyph0-23" x="662" y="640"/>
</g>
<path style="fill:none;stroke-width:4;stroke-linecap:round;stroke-linejoin:miter;stroke:rgb(97.647059%,76.862745%,25.098039%);stroke-opacity:1;stroke-miterlimit:10;" d="M 803.167969 516.90625 L 1055.554688 641.90625 " transform="matrix(1,0,0,1,67.332031,-27.90625)"/>
<path style="fill-rule:nonzero;fill:rgb(97.647059%,76.862745%,25.098039%);fill-opacity:1;stroke-width:2;stroke-linecap:round;stroke-linejoin:miter;stroke:rgb(100%,100%,100%);stroke-opacity:1;stroke-miterlimit:10;" d="M 1061.609375 644.90625 L 1055.378906 633.5 L 1048.757813 646.863281 Z M 1061.609375 644.90625 " transform="matrix(1,0,0,1,67.332031,-27.90625)"/>
<path style="fill:none;stroke-width:4;stroke-linecap:round;stroke-linejoin:miter;stroke:rgb(97.647059%,76.862745%,25.098039%);stroke-opacity:1;stroke-miterlimit:10;" d="M 1067.667969 677.90625 L 881.804688 787.90625 " transform="matrix(1,0,0,1,67.332031,-27.90625)"/>
<path style="fill-rule:nonzero;fill:rgb(97.647059%,76.862745%,25.098039%);fill-opacity:1;stroke-width:2;stroke-linecap:round;stroke-linejoin:miter;stroke:rgb(100%,100%,100%);stroke-opacity:1;stroke-miterlimit:10;" d="M 876.738281 790.90625 L 889.699219 791.898438 L 882.101563 779.066406 Z M 876.738281 790.90625 " transform="matrix(1,0,0,1,67.332031,-27.90625)"/>
<path style="fill-rule:nonzero;fill:rgb(100%,100%,100%);fill-opacity:1;stroke-width:4;stroke-linecap:round;stroke-linejoin:miter;stroke:rgb(97.647059%,76.862745%,25.098039%);stroke-opacity:1;stroke-miterlimit:10;" d="M 836.167969 793.90625 L 907.167969 793.90625 C 907.167969 793.90625 917.167969 808.90625 907.167969 823.90625 L 836.167969 823.90625 C 836.167969 823.90625 826.167969 808.90625 836.167969 793.90625 " transform="matrix(1,0,0,1,67.332031,-27.90625)"/>
<g style="fill:rgb(0%,0%,0%);fill-opacity:1;">
  <use xlink:href="#glyph0-18" x="904.5" y="786"/>
  <use xlink:href="#glyph0-5" x="913.5" y="786"/>
  <use xlink:href="#glyph0-30" x="919.5" y="786"/>
  <use xlink:href="#glyph0-29" x="928.5" y="786"/>
  <use xlink:href="#glyph0-8" x="937.5" y="786"/>
  <use xlink:href="#glyph0-30" x="941.5" y="786"/>
  <use xlink:href="#glyph0-7" x="950.5" y="786"/>
  <use xlink:href="#glyph0-11" x="956.5" y="786"/>
  <use xlink:href="#glyph0-27" x="965.5" y="786"/>
</g>
<path style="fill:none;stroke-width:4;stroke-linecap:round;stroke-linejoin:miter;stroke:rgb(97.647059%,76.862745%,25.098039%);stroke-opacity:1;stroke-miterlimit:10;" d="M 1067.667969 677.90625 L 1003.183594 787.90625 " transform="matrix(1,0,0,1,67.332031,-27.90625)"/>
<path style="fill-rule:nonzero;fill:rgb(97.647059%,76.862745%,25.098039%);fill-opacity:1;stroke-width:2;stroke-linecap:round;stroke-linejoin:miter;stroke:rgb(100%,100%,100%);stroke-opacity:1;stroke-miterlimit:10;" d="M 1001.425781 790.90625 L 1013.246094 785.492188 L 1000.378906 777.949219 Z M 1001.425781 790.90625 " transform="matrix(1,0,0,1,67.332031,-27.90625)"/>
<path style="fill-rule:nonzero;fill:rgb(100%,100%,100%);fill-opacity:1;stroke-width:4;stroke-linecap:round;stroke-linejoin:miter;stroke:rgb(97.647059%,76.862745%,25.098039%);stroke-opacity:1;stroke-miterlimit:10;" d="M 933.167969 793.90625 L 1066.167969 793.90625 C 1066.167969 793.90625 1076.167969 808.90625 1066.167969 823.90625 L 933.167969 823.90625 C 933.167969 823.90625 923.167969 808.90625 933.167969 793.90625 " transform="matrix(1,0,0,1,67.332031,-27.90625)"/>
<g style="fill:rgb(0%,0%,0%);fill-opacity:1;">
  <use xlink:href="#glyph0-23" x="1001.5" y="786"/>
  <use xlink:href="#glyph0-8" x="1009.5" y="786"/>
  <use xlink:href="#glyph0-31" x="1013.5" y="786"/>
  <use xlink:href="#glyph0-11" x="1021.5" y="786"/>
  <use xlink:href="#glyph0-28" x="1030.5" y="786"/>
  <use xlink:href="#glyph0-31" x="1039.5" y="786"/>
  <use xlink:href="#glyph0-11" x="1047.5" y="786"/>
  <use xlink:href="#glyph0-2" x="1056.5" y="786"/>
  <use xlink:href="#glyph0-11" x="1061.5" y="786"/>
  <use xlink:href="#glyph0-5" x="1070.5" y="786"/>
  <use xlink:href="#glyph0-2" x="1076.5" y="786"/>
  <use xlink:href="#glyph0-37" x="1081.5" y="786"/>
  <use xlink:href="#glyph0-30" x="1094.5" y="786"/>
  <use xlink:href="#glyph0-27" x="1103.5" y="786"/>
  <use xlink:href="#glyph0-5" x="1111.5" y="786"/>
  <use xlink:href="#glyph0-11" x="1117.5" y="786"/>
  <use xlink:href="#glyph0-7" x="1126.5" y="786"/>
</g>
<path style="fill:none;stroke-width:4;stroke-linecap:round;stroke-linejoin:miter;stroke:rgb(97.647059%,76.862745%,25.098039%);stroke-opacity:1;stroke-miterlimit:10;" d="M 1067.667969 677.90625 L 1130.253906 787.90625 " transform="matrix(1,0,0,1,67.332031,-27.90625)"/>
<path style="fill-rule:nonzero;fill:rgb(97.647059%,76.862745%,25.098039%);fill-opacity:1;stroke-width:2;stroke-linecap:round;stroke-linejoin:miter;stroke:rgb(100%,100%,100%);stroke-opacity:1;stroke-miterlimit:10;" d="M 1131.960938 790.90625 L 1133.175781 777.964844 L 1120.214844 785.339844 Z M 1131.960938 790.90625 " transform="matrix(1,0,0,1,67.332031,-27.90625)"/>
<path style="fill-rule:nonzero;fill:rgb(100%,100%,100%);fill-opacity:1;stroke-width:4;stroke-linecap:round;stroke-linejoin:miter;stroke:rgb(97.647059%,76.862745%,25.098039%);stroke-opacity:1;stroke-miterlimit:10;" d="M 1092.167969 793.90625 L 1175.167969 793.90625 C 1175.167969 793.90625 1185.167969 808.90625 1175.167969 823.90625 L 1092.167969 823.90625 C 1092.167969 823.90625 1082.167969 808.90625 1092.167969 793.90625 " transform="matrix(1,0,0,1,67.332031,-27.90625)"/>
<g style="fill:rgb(0%,0%,0%);fill-opacity:1;">
  <use xlink:href="#glyph0-16" x="1160.5" y="786"/>
  <use xlink:href="#glyph0-6" x="1171.5" y="786"/>
  <use xlink:href="#glyph0-31" x="1180.5" y="786"/>
  <use xlink:href="#glyph0-5" x="1188.5" y="786"/>
  <use xlink:href="#glyph0-6" x="1194.5" y="786"/>
  <use xlink:href="#glyph0-7" x="1203.5" y="786"/>
  <use xlink:href="#glyph0-30" x="1209.5" y="786"/>
  <use xlink:href="#glyph0-28" x="1218.5" y="786"/>
  <use xlink:href="#glyph0-5" x="1227.5" y="786"/>
  <use xlink:href="#glyph0-27" x="1233.5" y="786"/>
</g>
<path style="fill:none;stroke-width:4;stroke-linecap:round;stroke-linejoin:miter;stroke:rgb(97.647059%,76.862745%,25.098039%);stroke-opacity:1;stroke-miterlimit:10;" d="M 1067.667969 677.90625 L 1240.726563 787.90625 " transform="matrix(1,0,0,1,67.332031,-27.90625)"/>
<path style="fill-rule:nonzero;fill:rgb(97.647059%,76.862745%,25.098039%);fill-opacity:1;stroke-width:2;stroke-linecap:round;stroke-linejoin:miter;stroke:rgb(100%,100%,100%);stroke-opacity:1;stroke-miterlimit:10;" d="M 1245.449219 790.90625 L 1240.460938 778.902344 L 1232.460938 791.488281 Z M 1245.449219 790.90625 " transform="matrix(1,0,0,1,67.332031,-27.90625)"/>
<path style="fill-rule:nonzero;fill:rgb(100%,100%,100%);fill-opacity:1;stroke-width:4;stroke-linecap:round;stroke-linejoin:miter;stroke:rgb(97.647059%,76.862745%,25.098039%);stroke-opacity:1;stroke-miterlimit:10;" d="M 1201.167969 793.90625 L 1299.167969 793.90625 C 1299.167969 793.90625 1309.167969 808.90625 1299.167969 823.90625 L 1201.167969 823.90625 C 1201.167969 823.90625 1191.167969 808.90625 1201.167969 793.90625 " transform="matrix(1,0,0,1,67.332031,-27.90625)"/>
<g style="fill:rgb(0%,0%,0%);fill-opacity:1;">
  <use xlink:href="#glyph0-33" x="1269.5" y="786"/>
  <use xlink:href="#glyph0-7" x="1278.5" y="786"/>
  <use xlink:href="#glyph0-6" x="1284.5" y="786"/>
  <use xlink:href="#glyph0-40" x="1293.5" y="786"/>
  <use xlink:href="#glyph0-11" x="1298.5" y="786"/>
  <use xlink:href="#glyph0-5" x="1307.5" y="786"/>
  <use xlink:href="#glyph0-8" x="1313.5" y="786"/>
  <use xlink:href="#glyph0-6" x="1317.5" y="786"/>
  <use xlink:href="#glyph0-28" x="1326.5" y="786"/>
  <use xlink:href="#glyph0-28" x="1335.5" y="786"/>
  <use xlink:href="#glyph0-11" x="1344.5" y="786"/>
  <use xlink:href="#glyph0-12" x="1353.5" y="786"/>
  <use xlink:href="#glyph0-27" x="1357.5" y="786"/>
</g>
<path style="fill-rule:nonzero;fill:rgb(100%,100%,100%);fill-opacity:1;stroke-width:4;stroke-linecap:round;stroke-linejoin:miter;stroke:rgb(97.647059%,76.862745%,25.098039%);stroke-opacity:1;stroke-miterlimit:10;" d="M 1018.167969 647.90625 L 1117.167969 647.90625 C 1117.167969 647.90625 1127.167969 662.90625 1117.167969 677.90625 L 1018.167969 677.90625 C 1018.167969 677.90625 1008.167969 662.90625 1018.167969 647.90625 " transform="matrix(1,0,0,1,67.332031,-27.90625)"/>
<g style="fill:rgb(0%,0%,0%);fill-opacity:1;">
  <use xlink:href="#glyph0-3" x="1086.5" y="640"/>
  <use xlink:href="#glyph0-33" x="1096.5" y="640"/>
  <use xlink:href="#glyph0-33" x="1105.5" y="640"/>
  <use xlink:href="#glyph0-19" x="1114.5" y="640"/>
  <use xlink:href="#glyph0-22" x="1124.5" y="640"/>
  <use xlink:href="#glyph0-21" x="1133.5" y="640"/>
  <use xlink:href="#glyph0-3" x="1144.5" y="640"/>
  <use xlink:href="#glyph0-21" x="1154.5" y="640"/>
  <use xlink:href="#glyph0-25" x="1165.5" y="640"/>
  <use xlink:href="#glyph0-18" x="1174.5" y="640"/>
</g>
<path style=" stroke:none;fill-rule:nonzero;fill:rgb(83.137255%,83.137255%,83.137255%);fill-opacity:1;" d="M 781.5 474 L 959.5 474 C 959.5 474 969.5 489 959.5 504 L 781.5 504 C 781.5 504 771.5 489 781.5 474 "/>
<g style="fill:rgb(0%,0%,0%);fill-opacity:1;">
  <use xlink:href="#glyph0-23" x="782.5" y="494"/>
  <use xlink:href="#glyph0-3" x="790.5" y="494"/>
  <use xlink:href="#glyph0-38" x="800.5" y="494"/>
  <use xlink:href="#glyph0-20" x="810.5" y="494"/>
  <use xlink:href="#glyph0-19" x="821.5" y="494"/>
  <use xlink:href="#glyph0-3" x="831.5" y="494"/>
  <use xlink:href="#glyph0-25" x="839.5" y="494"/>
  <use xlink:href="#glyph0-20" x="848.5" y="494"/>
  <use xlink:href="#glyph0-17" x="860.5" y="494"/>
  <use xlink:href="#glyph0-19" x="864.5" y="494"/>
  <use xlink:href="#glyph0-22" x="874.5" y="494"/>
  <use xlink:href="#glyph0-2" x="883.5" y="494"/>
  <use xlink:href="#glyph0-15" x="888.5" y="494"/>
  <use xlink:href="#glyph0-20" x="898.5" y="494"/>
  <use xlink:href="#glyph0-37" x="910.5" y="494"/>
  <use xlink:href="#glyph0-37" x="923.5" y="494"/>
  <use xlink:href="#glyph0-14" x="936.5" y="494"/>
  <use xlink:href="#glyph0-21" x="947.5" y="494"/>
</g>
</g>
</svg>
